<svg viewBox="0 0 400 131" fill="none" xmlns="http://www.w3.org/2000/svg">
<g id="Color=Default">
<g id="Logo Content">
<path id="Title" d="M26.5129 54.2H49.5129V79.8H26.5129V54.2ZM26.5129 28.2H49.5129V43.2H26.5129V28.2ZM65.9129 17.2H60.5129V3.5H59.9129V17.2H49.9129V3.5H49.5129V17.2H26.5129V3.5H25.9129V17.2H15.9129V3.5H15.5129V17.2H7.81289V17.8H15.5129V27.8H7.81289V28.2H15.5129V43.2H7.81289V43.8H15.5129V53.8H8.91289V54.2H15.5129V79.8H8.91289V80.2H15.5129V95.1H15.9129V80.2H25.9129V95.1H26.5129V80.2H49.5129V95.1H49.9129V80.2H59.9129V95.1H60.5129V80.2H66.1129V79.8H60.5129V28.2H65.9129V27.8H60.5129V17.8H65.9129V17.2ZM53.7129 43.2H49.9129V28.2H59.9129V79.8H49.9129V54.2H53.8129V53.8H49.9129V43.8H53.7129V43.2ZM25.3129 79.8H24.1129L25.9129 78.7V79.4L25.3129 79.8ZM23.2129 79.8H21.9129L25.9129 77.4V78.1L23.2129 79.8ZM21.0129 79.8H19.8129L25.9129 76.2V76.9L21.0129 79.8ZM18.9129 79.8H17.6129L25.9129 74.9V75.6L18.9129 79.8ZM16.7129 79.8H15.9129V79.5L25.9129 73.7V74.4L16.7129 79.8ZM15.9129 78.9V78.2L25.9129 72.4V73.1L15.9129 78.9ZM15.9129 77.7V77L25.9129 71.2V71.9L15.9129 77.7ZM15.9129 76.4V75.7L25.9129 69.9V70.6L15.9129 76.4ZM15.9129 75.2V74.5L25.9129 68.7V69.4L15.9129 75.2ZM15.9129 73.9V73.2L25.9129 67.4V68.1L15.9129 73.9ZM48.7129 53.8H47.4129L49.5129 52.6V53.3L48.7129 53.8ZM15.9129 72.7V72L25.9129 66.2V66.9L15.9129 72.7ZM46.5129 53.8H45.2129L49.5129 51.3V52L46.5129 53.8ZM15.9129 71.4V70.7L25.9129 64.9V65.6L15.9129 71.4ZM44.3129 53.8H43.1129L49.5129 50.1V50.8L44.3129 53.8ZM15.9129 70.2V69.5L25.9129 63.7V64.4L15.9129 70.2ZM42.2129 53.8H40.9129L49.5129 48.8V49.5L42.2129 53.8ZM15.9129 68.9V68.2L25.9129 62.4V63.1L15.9129 68.9ZM40.0129 53.8H38.8129L49.5129 47.6V48.3L40.0129 53.8ZM15.9129 67.7V67L25.9129 61.2V61.9L15.9129 67.7ZM37.9129 53.8H36.6129L49.5129 46.3V47L37.9129 53.8ZM15.9129 66.4V65.7L25.9129 59.9V60.6L15.9129 66.4ZM35.7129 53.8H34.4129L49.5129 45.1V45.8L35.7129 53.8ZM15.9129 65.2V64.5L25.9129 58.7V59.4L15.9129 65.2ZM33.5129 53.8H32.3129L49.5129 43.8V44.5L33.5129 53.8ZM15.9129 63.9V63.2L25.9129 57.4V58.1L15.9129 63.9ZM31.4129 53.8H30.1129L47.4129 43.8H48.7129L31.4129 53.8ZM15.9129 62.7V62L25.9129 56.2V56.9L15.9129 62.7ZM29.2129 53.8H28.0129L45.2129 43.8H46.5129L29.2129 53.8ZM15.9129 61.4V60.7L25.9129 54.9V55.6L15.9129 61.4ZM27.1129 53.8H26.5129V53.4L43.1129 43.8H44.3129L27.1129 53.8ZM15.9129 60.2V59.5L24.9129 54.2H25.9129V54.4L15.9129 60.2ZM25.8129 53.8L25.9129 53.7V53.8H25.8129ZM24.9129 53.8H23.6129L25.9129 52.4V53.1L24.9129 53.8ZM26.5129 52.9V52.1L40.9129 43.8H42.2129L26.5129 52.9ZM24.0129 54.2L15.9129 58.9V58.2L22.8129 54.2H24.0129ZM22.8129 53.8H21.5129L25.9129 51.2V51.9L22.8129 53.8ZM26.5129 51.6V50.9L38.8129 43.8H40.0129L26.5129 51.6ZM21.9129 54.2L15.9129 57.7V57L20.6129 54.2H21.9129ZM20.6129 53.8H19.3129L25.9129 49.9V50.6L20.6129 53.8ZM26.5129 50.4V49.6L36.6129 43.8H37.9129L26.5129 50.4ZM19.7129 54.2L15.9129 56.4V55.7L18.5129 54.2H19.7129ZM18.4129 53.8H17.2129L25.9129 48.7V49.4L18.4129 53.8ZM26.5129 49.1V48.4L34.4129 43.8H35.7129L26.5129 49.1ZM17.6129 54.2L15.9129 55.2V54.5L16.3129 54.2H17.6129ZM16.3129 53.8H15.9129V53.2L25.9129 47.4V48.1L16.3129 53.8ZM26.5129 47.9V47.1L32.3129 43.8H33.5129L26.5129 47.9ZM59.9129 27.2L59.0129 27.8H57.8129L59.9129 26.5V27.2ZM15.9129 52.7V52L25.9129 46.2V46.9L15.9129 52.7ZM26.5129 46.6V45.9L30.1129 43.8H31.4129L26.5129 46.6ZM59.9129 26L56.9129 27.8H55.6129L59.9129 25.2V26ZM15.9129 51.4V50.7L25.9129 44.9V45.6L15.9129 51.4ZM26.5129 45.4V44.6L28.0129 43.8H29.2129L26.5129 45.4ZM59.9129 24.7L54.7129 27.8H53.4129L59.9129 24V24.7ZM15.9129 50.2V49.5L25.8129 43.8H25.9129V44.4L15.9129 50.2ZM26.5129 44.1V43.8H27.1129L26.5129 44.1ZM59.9129 23.5L52.5129 27.8H51.3129L59.9129 22.7V23.5ZM25.8129 43.2H24.5129L25.9129 42.4V43.1L25.8129 43.2ZM15.9129 48.9V48.2L23.6129 43.8H24.9129L15.9129 48.9ZM59.9129 22.2L50.4129 27.8H49.9129V27.3L59.9129 21.5V22.2ZM23.6129 43.2H22.4129L25.9129 41.2V41.9L23.6129 43.2ZM15.9129 47.7V47L21.5129 43.8H22.8129L15.9129 47.7ZM49.1129 27.8L49.5129 27.6V27.8H49.1129ZM48.2129 27.8H47.0129L49.5129 26.3V27L48.2129 27.8ZM59.9129 21L49.9129 26.7V26L59.9129 20.2V21ZM21.5129 43.2H20.2129L25.9129 39.9V40.6L21.5129 43.2ZM15.9129 46.4V45.7L19.3129 43.8H20.6129L15.9129 46.4ZM46.1129 27.8H44.8129L49.5129 25.1V25.8L46.1129 27.8ZM59.9129 19.7L49.9129 25.5V24.8L59.9129 19V19.7ZM19.3129 43.2H18.0129L25.9129 38.7V39.4L19.3129 43.2ZM15.9129 45.2V44.5L17.2129 43.8H18.4129L15.9129 45.2ZM43.9129 27.8H42.6129L49.5129 23.8V24.5L43.9129 27.8ZM59.9129 18.5L49.9129 24.2V23.5L59.9129 17.8V18.5ZM17.1129 43.2H15.9129L25.9129 37.4V38.1L17.1129 43.2ZM15.9129 43.9V43.8H16.3129L15.9129 43.9ZM41.7129 27.8H40.5129L49.5129 22.6V23.3L41.7129 27.8ZM59.0129 17.8L49.9129 23V22.3L57.8129 17.8H59.0129ZM15.9129 42.7V42L25.9129 36.2V36.9L15.9129 42.7ZM39.6129 27.8H38.3129L49.5129 21.3V22L39.6129 27.8ZM56.9129 17.8L49.9129 21.7V21L55.6129 17.8H56.9129ZM15.9129 41.4V40.7L25.9129 34.9V35.6L15.9129 41.4ZM37.4129 27.8H36.2129L49.5129 20.1V20.8L37.4129 27.8ZM54.7129 17.8L49.9129 20.5V19.8C51.1129 19.1 52.2129 18.5 53.4129 17.8H54.7129ZM15.9129 40.2V39.5L25.9129 33.7V34.4L15.9129 40.2ZM35.3129 27.8H34.0129L49.5129 18.8V19.5L35.3129 27.8ZM52.5129 17.8L49.9129 19.2V18.5L51.3129 17.8H52.5129ZM15.9129 38.9V38.2L25.9129 32.4V33.1L15.9129 38.9ZM33.1129 27.8H31.9129L49.1129 17.8H49.5129V18.3L33.1129 27.8ZM50.4129 17.8L49.9129 18V17.8H50.4129ZM15.9129 37.7V37L25.9129 31.2V31.9L15.9129 37.7ZM31.0129 27.8H29.7129L47.0129 17.8H48.2129L31.0129 27.8ZM15.9129 36.4V35.7L25.9129 29.9V30.6L15.9129 36.4ZM28.8129 27.8H27.5129L44.8129 17.8H46.1129L28.8129 27.8ZM15.9129 35.2V34.5L25.9129 28.7V29.4L15.9129 35.2ZM15.9129 33.9V33.2L24.5129 28.2H25.8129L15.9129 33.9ZM26.6129 27.8H26.5129V27.1L42.6129 17.8H43.9129L26.6129 27.8ZM25.4129 27.8L25.9129 27.4V27.8H25.4129ZM15.9129 32.7V32L22.4129 28.2H23.6129L15.9129 32.7ZM24.5129 27.8H23.2129L25.9129 26.2V26.9L24.5129 27.8ZM41.7129 17.8L26.5129 26.6V25.9L40.5129 17.8H41.7129ZM15.9129 31.4V30.7L20.2129 28.2H21.5129L15.9129 31.4ZM22.3129 27.8H21.1129L25.9129 24.9V25.6L22.3129 27.8ZM39.6129 17.8L26.5129 25.4V24.6L38.3129 17.8H39.6129ZM15.9129 30.2V29.5C16.6129 29.1 17.3129 28.6 18.0129 28.2H19.3129L15.9129 30.2ZM20.2129 27.8H18.9129L25.9129 23.7V24.4L20.2129 27.8ZM37.4129 17.8L26.5129 24.1V23.4L36.2129 17.8H37.4129ZM15.9129 28.9V28.2H17.1129C16.7129 28.4 16.3129 28.7 15.9129 28.9ZM18.0129 27.8H16.7129L25.9129 22.4V23.1L18.0129 27.8ZM35.3129 17.8L26.5129 22.9V22.1L34.0129 17.8H35.3129ZM25.9129 21.9L15.9129 27.7V27L25.9129 21.2V21.9ZM33.1129 17.8L26.5129 21.6V20.9L31.9129 17.8H33.1129ZM25.9129 20.6L15.9129 26.4V25.7L25.9129 19.9V20.6ZM31.0129 17.8L26.5129 20.4V19.6L29.7129 17.8H31.0129ZM25.9129 19.4L15.9129 25.2V24.5L25.9129 18.7V19.4ZM28.8129 17.8L26.5129 19.1V18.4L27.5129 17.8H28.8129ZM25.9129 18.1L15.9129 23.9V23.2L25.4129 17.8H25.9129V18.1ZM26.6129 17.8L26.5129 17.9V17.8H26.6129ZM24.5129 17.8L15.9129 22.7V22L23.2129 17.8H24.5129ZM22.3129 17.8L15.9129 21.4V20.7L21.1129 17.8H22.3129ZM20.2129 17.8L15.9129 20.2V19.5L18.9129 17.8H20.2129ZM18.0129 17.8L15.9129 18.9V18.2L16.7129 17.8H18.0129ZM109.429 79.8L117.929 74.9V75.5L110.629 79.8H109.429ZM126.729 69.8H127.829L118.429 75.3V74.6L126.729 69.8ZM107.229 79.8L117.929 73.6V74.3L108.429 79.8H107.229ZM124.529 69.8H125.729L118.429 74V73.3L124.529 69.8ZM105.129 79.8L117.929 72.4V73L106.229 79.8H105.129ZM122.429 69.8H123.529L118.429 72.7V72.1L122.429 69.8ZM102.929 79.8L117.929 71.1V71.8L104.129 79.8H102.929ZM120.229 69.8H121.429L118.429 71.5V70.8L120.229 69.8ZM119.229 69.8L118.429 70.2V69.8H119.229ZM100.829 79.8L117.929 69.9V70.5L101.929 79.8H100.829ZM98.6285 79.8L115.929 69.8H117.129L99.8285 79.8H98.6285ZM96.4285 79.8L113.729 69.8H114.929L97.6285 79.8H96.4285ZM94.3285 79.8L111.629 69.8H112.729L95.4285 79.8H94.3285ZM109.429 69.8H110.629L93.3285 79.8H92.4285V79.6L109.429 69.8ZM107.329 69.8H108.429L92.4285 79V78.4L107.329 69.8ZM91.9285 78.7V79.3L91.1285 79.8H90.0285L91.9285 78.7ZM105.129 69.8H106.329L92.4285 77.8V77.1L105.129 69.8ZM91.9285 77.4V78.1L89.0285 79.8H87.8285L91.9285 77.4ZM102.929 69.8H104.129L92.4285 76.6V75.9L102.929 69.8ZM91.9285 76.1V76.8L86.8285 79.8H85.6285L91.9285 76.1ZM100.829 69.8H101.929L92.4285 75.3V74.6L100.829 69.8ZM91.9285 74.9V75.6L84.7285 79.8H83.5285L91.9285 74.9ZM98.6285 69.8H99.8285L92.4285 74.1V73.4L98.6285 69.8ZM91.9285 73.7V74.4L82.5285 79.8H82.0285V79.5L91.9285 73.7ZM96.5285 69.8H97.6285L92.4285 72.8V72.2L96.5285 69.8ZM91.9285 72.5V73.1L82.0285 78.9V78.2L91.9285 72.5ZM94.3285 69.8H95.5285L92.4285 71.6V70.9L94.3285 69.8ZM91.9285 71.2V71.9L82.0285 77.6V77L91.9285 71.2ZM93.3285 69.8L92.4285 70.3V69.8H93.3285ZM91.9285 70V70.6L82.0285 76.4V75.7L91.9285 70ZM91.1285 69.2L91.9285 68.7V69.2H91.1285ZM90.1285 69.8H91.3285L82.0285 75.1V74.5L90.1285 69.8ZM89.0285 69.2L91.9285 67.5V68.1L90.1285 69.2H89.0285ZM88.0285 69.8H89.1285L82.0285 73.9V73.2L88.0285 69.8ZM86.8285 69.2L91.9285 66.2V66.9L88.0285 69.2H86.8285ZM85.8285 69.8H86.9285L82.0285 72.6V72L85.8285 69.8ZM84.6285 69.2L91.9285 65V65.6L85.8285 69.2H84.6285ZM83.6285 69.8H84.8285L82.0285 71.4V70.7L83.6285 69.8ZM82.5285 69.8L82.0285 70.1V69.8H82.5285ZM82.5285 69.2L91.9285 63.7V64.4L83.6285 69.2H82.5285ZM82.0285 68.2L91.9285 62.5V63.1L82.0285 68.9V68.2ZM82.0285 67L91.9285 61.2V61.9L82.0285 67.6V67ZM82.0285 65.7L91.9285 60V60.6L82.0285 66.4V65.7ZM82.0285 64.5L91.9285 58.7V59.4L82.0285 65.1V64.5ZM82.0285 63.2L91.9285 57.5V58.1L82.0285 63.9V63.2ZM82.0285 62L91.9285 56.2V56.9L82.0285 62.6V62ZM82.0285 60.7L91.9285 55V55.6L82.0285 61.4V60.7ZM117.629 53.8L117.929 53.6V53.8H117.629ZM115.429 53.8L117.929 52.4V53.1L116.629 53.8H115.429ZM113.329 53.8L117.929 51.1V51.8L114.429 53.8H113.329ZM111.129 53.8L117.929 49.9V50.6L112.329 53.8H111.129ZM109.029 53.8L117.929 48.6V49.3L110.129 53.8H109.029ZM106.829 53.8L117.929 47.4V48.1L108.029 53.8H106.829ZM104.629 53.8L117.929 46.1V46.8L105.829 53.8H104.629ZM102.529 53.8L117.929 44.9V45.6L103.629 53.8H102.529ZM100.329 53.8L117.629 43.8H117.929V44.3L101.529 53.8H100.329ZM98.2285 53.8L115.529 43.8H116.629L99.3285 53.8H98.2285ZM95.0285 53.8H93.9285L111.129 43.8H112.329L95.0285 53.8ZM96.0285 53.8L113.329 43.8H114.529L97.2285 53.8H96.0285ZM92.4285 54.2H117.929V69.2H92.4285V54.2ZM91.8285 53.8L91.9285 53.7V53.8H91.8285ZM92.4285 53.5L109.029 43.8H110.129L92.9285 53.8H92.4285V53.5ZM91.1285 54.2H91.9285V54.4L82.0285 60.1V59.5L91.1285 54.2ZM89.6285 53.8L91.9285 52.4V53.1L90.8285 53.8H89.6285ZM92.4285 52.2L106.829 43.8H108.029L92.4285 52.9V52.2ZM88.9285 54.2H90.1285L82.0285 58.9V58.2L88.9285 54.2ZM87.5285 53.8L91.9285 51.2V51.9L88.6285 53.8H87.5285ZM92.4285 50.9L104.729 43.8H105.829L92.4285 51.6V50.9ZM86.8285 54.2H87.9285L82.0285 57.6V57L86.8285 54.2ZM85.3285 53.8L91.9285 49.9V50.6L86.5285 53.8H85.3285ZM92.4285 49.7L102.529 43.8H103.729L92.4285 50.4V49.7ZM84.6285 54.2H85.8285L82.0285 56.4V55.7L84.6285 54.2ZM83.2285 53.8L91.9285 48.7V49.4L84.3285 53.8H83.2285ZM92.4285 48.4L100.429 43.8H101.529L92.4285 49.1V48.4ZM82.5285 54.2H83.6285L82.0285 55.1V54.5L82.5285 54.2ZM82.0285 53.2L91.9285 47.4V48.1L82.2285 53.8H82.0285V53.2ZM92.4285 47.2L98.2285 43.8H99.4285L92.4285 47.9V47.2ZM82.0285 52L91.9285 46.2V46.9L82.0285 52.6V52ZM92.4285 45.9L96.0285 43.8H97.2285L92.4285 46.6V45.9ZM82.0285 50.7L91.9285 44.9V45.6L82.0285 51.4V50.7ZM92.4285 44.7L93.9285 43.8H95.0285L92.4285 45.3V44.7ZM92.4285 44.1V43.8H92.9285L92.4285 44.1ZM82.0285 49.5L91.7285 43.8H91.9285V44.4L82.0285 50.1V49.5ZM90.8285 43.2L91.9285 42.5V43.1L91.8285 43.2H90.8285ZM82.0285 48.2L89.7285 43.8H90.8285L82.0285 48.9V48.2ZM88.5285 43.2L91.9285 41.2V41.9L89.7285 43.2H88.5285ZM82.0285 47L87.5285 43.8H88.7285L82.0285 47.6V47ZM86.4285 43.2L91.9285 40V40.6L87.5285 43.2H86.4285ZM82.0285 45.7L85.3285 43.8H86.5285L82.0285 46.4V45.7ZM84.3285 43.2L91.9285 38.7V39.4L85.3285 43.2H84.3285ZM82.0285 44.5L83.2285 43.8H84.3285L82.0285 45.1V44.5ZM82.0285 43.9V43.8H82.2285L82.0285 43.9ZM82.0285 43.2L91.9285 37.5V38.1L83.2285 43.2H82.0285ZM82.0285 42L91.9285 36.2V36.9L82.0285 42.6V42ZM82.0285 40.7L91.9285 35V35.6L82.0285 41.4V40.7ZM82.0285 39.5L91.9285 33.7V34.4L82.0285 40.1V39.5ZM82.0285 38.2L91.9285 32.5V33.1L82.0285 38.9V38.2ZM82.0285 37L91.9285 31.2V31.9L82.0285 37.6V37ZM82.0285 35.7L91.9285 30V30.6L82.0285 36.4V35.7ZM82.0285 34.5L91.9285 28.7V29.4L82.0285 35.1V34.5ZM128.529 27.5V27.8H128.029L128.529 27.5ZM128.529 26.2V26.9L127.029 27.8H125.829L128.529 26.2ZM128.529 25V25.6L124.829 27.8H123.629L128.529 25ZM128.529 23.7V24.4L122.629 27.8H121.529L128.529 23.7ZM128.529 22.5V23.1L120.529 27.8H119.329L128.529 22.5ZM117.229 27.8L117.929 27.4V27.8H117.229ZM128.529 21.2V21.9L118.429 27.7V27.1L128.529 21.2ZM115.029 27.8L117.929 26.1V26.8L116.229 27.8H115.029ZM128.529 20V20.6L118.429 26.5V25.8L128.529 20ZM112.829 27.8L117.929 24.9V25.5L114.029 27.8H112.829ZM128.529 18.7V19.4L118.429 25.3V24.6L128.529 18.7ZM110.729 27.8L117.929 23.6V24.3L111.829 27.8H110.729ZM128.029 17.8H128.529V18.1L118.429 24V23.4L128.029 17.8ZM108.529 27.8L117.929 22.4V23L109.729 27.8H108.529ZM125.829 17.8H127.029L118.429 22.8V22.1L125.829 17.8ZM106.429 27.8L117.929 21.1V21.8L107.529 27.8H106.429ZM123.729 17.8H124.829L118.429 21.5V20.8L123.729 17.8ZM104.229 27.8L117.929 19.9V20.6L105.429 27.8H104.229ZM121.529 17.8H122.729L118.429 20.3V19.6L121.529 17.8ZM102.129 27.8L117.929 18.6V19.3L103.229 27.8H102.129ZM119.329 17.8H120.529L118.429 19V18.3L119.329 17.8ZM99.9285 27.8L117.229 17.8H117.929V18.1L101.129 27.8H99.9285ZM97.7285 27.8L115.029 17.8H116.229L98.9285 27.8H97.7285ZM94.6285 27.8H93.4285L110.729 17.8H111.929L94.6285 27.8ZM92.4285 28.2H117.929V43.2H92.4285V28.2ZM95.6285 27.8L112.929 17.8H114.029L96.7285 27.8H95.6285ZM82.0285 33.2L90.6285 28.2H91.8285L82.0285 33.9V33.2ZM91.3285 27.8L91.9285 27.5V27.8H91.3285ZM108.629 17.8H109.729L92.5285 27.8H92.4285V27.2L108.629 17.8ZM82.0285 32L88.5285 28.2H89.6285L82.0285 32.6V32ZM89.2285 27.8L91.9285 26.2V26.9L90.3285 27.8H89.2285ZM106.429 17.8H107.629L92.4285 26.6V25.9L106.429 17.8ZM82.0285 30.7L86.3285 28.2H87.5285L82.0285 31.4V30.7ZM87.0285 27.8L91.9285 24.9V25.6L88.2285 27.8H87.0285ZM104.229 17.8H105.429L92.4285 25.4V24.7L104.229 17.8ZM82.0285 29.5L84.2285 28.2H85.3285L82.0285 30.1V29.5ZM84.9285 27.8L91.9285 23.7V24.4L86.0285 27.8H84.9285ZM102.129 17.8H103.229L92.4285 24.1V23.4L102.129 17.8ZM82.0285 28.2H83.2285L82.0285 28.9V28.2ZM82.7285 27.8L91.9285 22.4V23.1L83.9285 27.8H82.7285ZM99.9285 17.8H101.129L92.4285 22.9V22.2L99.9285 17.8ZM91.9285 21.2V21.9L82.0285 27.6V27L91.9285 21.2ZM97.8285 17.8H98.9285L92.4285 21.6V20.9L97.8285 17.8ZM91.9285 19.9V20.6L82.0285 26.4V25.7L91.9285 19.9ZM95.6285 17.8H96.8285L92.4285 20.3V19.6L95.6285 17.8ZM91.9285 18.7V19.4L82.0285 25.1V24.5L91.9285 18.7ZM93.4285 17.8H94.6285L92.4285 19.1V18.4L93.4285 17.8ZM91.3285 17.8H91.9285V18.1L82.0285 23.9V23.2L91.3285 17.8ZM89.1285 17.8H90.3285L82.0285 22.6V22L89.1285 17.8ZM87.0285 17.8H88.1285L82.0285 21.4V20.7L87.0285 17.8ZM84.8285 17.8H86.0285L82.0285 20.1V19.5L84.8285 17.8ZM82.7285 17.8H83.8285L82.0285 18.9V18.2L82.7285 17.8ZM126.729 79.8L128.529 78.7V79.4L127.829 79.8H126.729ZM124.529 79.8L128.529 77.5V78.1L125.729 79.8H124.529ZM122.329 79.8L128.529 76.2V76.9L123.529 79.8H122.329ZM120.229 79.8L128.529 75V75.6L121.329 79.8H120.229ZM118.429 79.6L128.529 73.7V74.4L119.229 79.8H118.429V79.6ZM115.929 79.8L117.929 78.6V79.3L117.029 79.8H115.929ZM118.429 78.4L128.529 72.5V73.1L118.429 79V78.4ZM112.729 79.8H111.629L117.929 76.2V76.8L112.729 79.8ZM118.429 76.5V75.9L128.529 70V70.6L118.429 76.5ZM113.729 79.8L117.929 77.4V78.1L114.929 79.8H113.729ZM118.429 77.1L128.529 71.2V71.9L118.429 77.8V77.1ZM81.5285 27.8H73.8285V28.2H81.5285V43.2H73.8285V43.8H81.5285V53.8H74.9285V54.2H81.5285V69.2H73.9285V69.8H81.5285V79.8H73.9285V80.2H81.5285V95.1H82.0285V80.2H91.9285V95.1H92.4285V80.2H117.929V95.1H118.429V80.2H128.529V95.1H128.929V80.2H136.529V79.8H128.929V69.8H136.529V69.2H128.929V28.2H134.429V27.8H128.929V17.8H134.429V17.2H128.929V3.59999H128.529V17.2H118.429V3.59999H117.929V17.2H92.4285V3.59999H91.9285V17.2H82.0285V3.59999H81.5285V17.2H73.8285V17.8H81.5285V27.8ZM118.429 43.8H124.729V43.2H118.429V28.2H128.529V69.2H118.429V54.2H124.829V53.8H118.429V43.8ZM167.921 29.1C169.321 28.6 170.921 28.2 172.521 28.2C179.621 28.2 185.121 33.9 185.121 41C185.121 45 183.321 48.6 180.521 50.9L167.921 29.1ZM160.021 37.4L169.321 53.4C163.721 52 159.521 47 159.521 41C159.521 39.7 159.621 38.6 160.021 37.4ZM160.321 36.8C161.521 33.4 164.121 30.7 167.421 29.3L180.121 51.2C178.021 52.8 175.421 53.8 172.521 53.8C171.621 53.8 170.821 53.7 170.021 53.5L160.321 36.8ZM177.121 17.8H185.121V21C182.721 19.5 180.021 18.4 177.121 17.8ZM192.021 27.8C190.321 25.3 188.121 23 185.621 21.3V17.8H195.521V27.8H192.021ZM192.321 28.2H195.521V36.2C194.921 33.3 193.821 30.6 192.321 28.2ZM159.521 53.8V44.4C160.721 48.9 164.321 52.5 168.821 53.8H159.521ZM159.521 36.4L159.721 36.8C159.621 37.1 159.621 37.3 159.521 37.6V36.4ZM167.421 28.2H168.821C168.421 28.3 168.021 28.5 167.621 28.6L167.421 28.2ZM188.621 64.8H195.521V76.7L188.621 64.8ZM159.521 64.8H175.821L176.021 65L184.621 79.8H159.521V64.8ZM159.521 17.2V15.6L160.421 17.2H159.521ZM159.521 28.2H166.821C166.921 28.4 167.121 28.6 167.221 28.8C163.921 30.2 161.221 32.9 159.921 36.2L159.521 35.4V28.2ZM194.221 53.8H192.321C193.821 51.4 194.921 48.7 195.521 45.9V64.2H188.321L186.121 60.4C186.321 60.2 186.521 60.1 186.721 59.9C188.721 58.3 190.621 56.3 192.021 54.2H194.221V53.8ZM201.421 17.2H196.121V3.5H195.521V17.2H185.621V3.5H185.121V17.2H172.321H161.021L159.521 14.6V3.5H158.921V13.7L153.821 4.9L153.421 5.2L158.921 14.7V17.2H148.921V3.5H148.521V16.4L144.121 8.9L143.721 9.2L148.421 17.2H140.821V17.8H148.521V27.8H144.321V28.2H148.521V53.8H141.921V54.2H148.521V64.2H141.921V64.8H148.521V79.8H139.921V80.2H148.521V95.1H148.921V80.2H158.921V95.1H159.521V80.2H184.921L185.121 80.6V95.1H185.621V81.5L192.721 93.8L193.221 93.5L185.621 80.5V80.2H195.521V95.1H196.121V80.2H197.021L200.021 85.3L200.421 85.1L197.621 80.2H204.721V79.8H197.321L196.121 77.5V64.8H199.421V64.2H196.121V41V28.2H199.021V27.8H196.121V17.8H201.421V17.2ZM196.521 79.4L196.821 79.8H196.121V79.7L196.521 79.4ZM196.321 79L196.121 79.2V78.5L196.321 79ZM195.021 79.8H193.821L195.521 78.7V79.5L195.021 79.8ZM192.921 79.8H191.621L195.521 77.5V77.7V78.2L192.921 79.8ZM190.721 79.8H189.521L194.921 76.6L195.221 77.1L190.721 79.8ZM188.621 79.8H187.321L194.421 75.7L194.721 76.2L188.621 79.8ZM186.421 79.8H185.621V79.5L193.821 74.7L194.121 75.3L186.421 79.8ZM185.621 79V78.2L193.321 73.8L193.621 74.3L185.621 79ZM184.921 79.4L184.621 78.8L185.121 78.5V79.3L184.921 79.4ZM185.621 77.7V77L192.721 72.8L193.121 73.4L185.621 77.7ZM184.421 78.4L184.121 77.9C184.421 77.7 184.821 77.5 185.121 77.3V78L184.421 78.4ZM185.621 76.5V75.7L192.221 71.9L192.521 72.5L185.621 76.5ZM183.821 77.5L183.521 76.9L185.121 76V76.8L183.821 77.5ZM185.621 75.2V74.5L191.721 71L192.021 71.5L185.621 75.2ZM183.321 76.5L183.021 76L185.121 74.8V75.5L183.321 76.5ZM185.621 74V73.2L191.121 70L191.421 70.6L185.621 74ZM182.821 75.6L182.421 75.1L185.121 73.5V74.3L182.821 75.6ZM185.621 72.7V72L190.621 69.1L190.921 69.7L185.621 72.7ZM182.221 74.7L181.921 74.1L185.121 72.3V73L182.221 74.7ZM185.621 71.5V70.7L190.021 68.2L190.321 68.7L185.621 71.5ZM181.721 73.7L181.421 73.2L185.121 71V71.8L181.721 73.7ZM185.621 70.2V69.5L189.521 67.2L189.821 67.8L185.621 70.2ZM181.121 72.8L180.821 72.3L185.121 69.8V70.5L181.121 72.8ZM185.621 69V68.2L188.921 66.3L189.321 66.8L185.621 69ZM180.621 71.9L180.321 71.3L185.121 68.5V69.3L180.621 71.9ZM185.621 67.7V67L188.421 65.4L188.721 65.9L185.621 67.7ZM180.021 70.9L179.721 70.4L185.121 67.3V68L180.021 70.9ZM185.621 66.5V65.7L187.321 64.8H188.021L188.221 65L185.621 66.5ZM179.521 70L179.221 69.4L185.121 66V66.8L179.521 70ZM186.421 64.8L185.621 65.2V64.8H186.421ZM187.621 64L187.321 64.2H186.021L187.321 63.5L187.621 64ZM179.021 69.1L178.621 68.5L185.121 64.8V65.5L179.021 69.1ZM187.121 63.1L185.621 64V63.2L186.821 62.6L187.121 63.1ZM178.421 68.1L178.121 67.6L183.021 64.8H184.221L178.421 68.1ZM158.321 79.8H157.121L158.921 78.7V79.4L158.321 79.8ZM183.821 64.2L185.121 63.5V64.2H183.821ZM186.521 62.2L185.621 62.7V62L186.221 61.6L186.521 62.2ZM177.921 67.2L177.621 66.6L180.821 64.8H182.121L177.921 67.2ZM182.921 64.2H181.721L185.121 62.3V63L182.921 64.2ZM156.221 79.8H154.921L158.921 77.4V78.1L156.221 79.8ZM186.021 61.2L185.621 61.5V60.7H185.721L186.021 61.2ZM177.321 66.2L177.021 65.7L178.721 64.8H179.921L179.621 64.9L177.321 66.2ZM180.821 64.2H180.621H179.521L183.621 61.9C184.021 61.7 184.421 61.5 184.821 61.2L185.121 61V61.8L180.821 64.2ZM154.021 79.8H152.821L158.921 76.2V76.9L154.021 79.8ZM176.821 65.3L176.521 64.8H177.821L176.821 65.3ZM151.921 79.8H150.621L158.921 74.9V75.6L151.921 79.8ZM179.121 63.2L185.121 59.8V60.4C183.321 61.6 181.221 62.5 179.121 63.2ZM185.621 59.5L188.221 58C187.521 58.7 186.621 59.3 185.821 59.9L185.621 59.6V59.5ZM177.521 63.7L176.021 64L175.921 63.8L184.621 58.8L184.921 59.4L177.521 63.7ZM185.621 59V58.2L190.621 55.3L189.421 56.8L185.621 59ZM149.721 79.8H148.921V79.5L158.921 73.7V74.4L149.721 79.8ZM185.021 58.6L185.121 58.5V58.7L185.021 58.6ZM175.721 63.4C175.621 63.2 175.521 63.1 175.421 62.9L184.021 57.9L184.421 58.4L175.721 63.4ZM174.521 64.1C174.021 64.1 173.621 64.2 173.121 64.2L175.021 63.1L175.321 63.7L174.521 64.1ZM184.821 58.2L184.521 57.6L185.121 57.3V58L184.821 58.2ZM185.621 57.7V57L190.321 54.2H191.421C191.421 54.3 191.321 54.3 191.321 54.4L185.621 57.7ZM148.921 78.9V78.2L158.921 72.4V73.1L148.921 78.9ZM191.221 53.8L192.121 53.2L191.821 53.8H191.221ZM175.221 62.5L174.921 62L183.521 56.9L183.821 57.5L175.221 62.5ZM172.221 64.2H171.021L174.421 62.2L174.721 62.8L172.221 64.2ZM184.321 57.2L183.921 56.7L185.121 56V56.8L184.321 57.2ZM190.321 53.8H189.021L193.121 51.4C192.921 51.8 192.821 52.1 192.621 52.4L190.321 53.8ZM189.421 54.2L185.621 56.5V55.7L188.221 54.2H189.421ZM148.921 77.7V77L158.921 71.2V71.9L148.921 77.7ZM174.621 61.6L174.321 61L183.021 56L183.321 56.6L174.621 61.6ZM170.221 64.2C169.821 64.2 169.521 64 169.121 64L173.921 61.3L174.221 61.8L170.221 64.2ZM183.721 56.3L183.421 55.8L185.121 54.8V55.5L183.721 56.3ZM188.121 53.8H186.921L193.921 49.7C193.821 50 193.621 50.4 193.521 50.7L188.121 53.8ZM187.321 54.2L185.621 55.2V54.5L186.021 54.2H187.321ZM148.921 76.4V75.7L158.921 69.9V70.6L148.921 76.4ZM174.121 60.6L173.821 60.1L182.421 55.1L182.721 55.6L174.121 60.6ZM168.421 63.9C168.121 63.8 167.721 63.8 167.421 63.7L173.321 60.3L173.721 60.9L168.421 63.9ZM183.221 55.4L182.821 54.8L183.821 54.2H185.121V54.3L183.221 55.4ZM186.021 53.8H185.621V53.2L194.421 48.1L194.121 49L186.021 53.8ZM148.921 75.2V74.5L158.921 68.7V69.4L148.921 75.2ZM166.621 64.2L166.821 64.1C167.021 64.1 167.221 64.2 167.421 64.2H166.621ZM184.721 53.8L185.121 53.5V53.8H184.721ZM165.721 64.2H164.421L165.321 63.7L166.221 64L165.721 64.2ZM183.821 53.8H182.521L185.121 52.3V53L183.821 53.8ZM173.521 59.7L173.221 59.2L181.721 54.2H181.921L182.221 54.7L173.521 59.7ZM166.821 63.6C166.521 63.5 166.221 63.5 165.921 63.4L172.821 59.4L173.121 59.9L166.821 63.6ZM182.621 54.4L182.521 54.2H182.921C182.821 54.3 182.721 54.3 182.621 54.4ZM185.621 52.7V52L194.921 46.6L194.621 47.5L185.621 52.7ZM148.921 73.9V73.2L158.921 67.4V68.1L148.921 73.9ZM163.521 64.2H162.321L164.021 63.3C164.321 63.4 164.521 63.4 164.821 63.5L163.521 64.2ZM185.121 51.8L182.121 53.5L181.821 53L185.121 51V51.8ZM173.021 58.8L172.721 58.2L179.521 54.2H180.821L173.021 58.8ZM165.321 63.2C165.021 63.1 164.821 63 164.521 62.9L172.221 58.5L172.621 59L165.321 63.2ZM185.621 51.5V50.7L195.221 45.2C195.121 45.5 195.121 45.7 195.021 46L185.621 51.5ZM148.921 72.7V72L158.921 66.2V66.9L148.921 72.7ZM181.321 53.2L181.621 53.8H180.421L181.321 53.2ZM161.421 64.2H160.121L162.721 62.7C162.921 62.8 163.221 63 163.421 63.1L161.421 64.2ZM185.121 50.5L181.521 52.6L181.221 52L185.121 49.8V50.5ZM181.121 52.8L179.521 53.8H178.221L180.821 52.3L181.121 52.8ZM172.521 57.8L172.121 57.3L177.421 54.2H178.621L172.521 57.8ZM164.021 62.7C163.721 62.6 163.421 62.5 163.221 62.4L171.721 57.5L172.021 58.1L164.021 62.7ZM185.621 50.2V49.5L195.421 43.8C195.421 44.1 195.321 44.3 195.321 44.6L185.621 50.2ZM148.921 71.4V70.7L158.921 64.9V65.6L148.921 71.4ZM162.221 62.5L159.521 64.1V63.4L161.521 62.2C161.721 62.3 162.021 62.4 162.221 62.5ZM158.321 64.8L148.921 70.2V69.5L157.121 64.8H158.321ZM185.121 49.3L181.021 51.6L180.821 51.3C181.121 51.1 181.421 50.8 181.721 50.5L185.121 48.5V49.3ZM180.621 51.9L177.321 53.8H176.121C177.721 53.4 179.121 52.6 180.421 51.6L180.621 51.9ZM171.921 56.9L171.621 56.3L175.221 54.2H176.521L171.921 56.9ZM162.721 62.2C162.521 62.1 162.221 62 162.021 61.9L171.221 56.6L171.521 57.1L162.721 62.2ZM185.621 49V48.2L195.521 42.5C195.521 42.8 195.421 43 195.421 43.3L185.621 49ZM185.121 48L182.721 49.4L183.621 48.2L185.121 47.3V48ZM185.621 47.7V47L195.521 41.2V42L185.621 47.7ZM161.021 61.9L159.521 62.9V62.1L160.421 61.6L161.021 61.9ZM158.921 63.1L157.021 64.2H155.821L158.921 62.4V63.1ZM156.221 64.8L148.921 68.9V68.2L154.921 64.8H156.221ZM171.421 56L171.121 55.4L173.121 54.2H174.321L171.421 56ZM161.521 61.6L160.921 61.3L170.621 55.7L170.921 56.2L161.521 61.6ZM158.921 63.7V64.2H157.921L158.921 63.7ZM185.121 46.8L184.021 47.4C184.221 47.1 184.421 46.7 184.521 46.4L185.121 46V46.8ZM185.621 46.5V45.7L195.521 40V40.7L185.621 46.5ZM159.921 61.3L159.521 61.6V61C159.721 61.1 159.721 61.2 159.921 61.3ZM158.921 61.9L154.921 64.2H153.621L158.921 61.2V61.9ZM154.021 64.8L148.921 67.7V67L152.821 64.8H154.021ZM170.821 55L170.521 54.5L170.921 54.2H172.221L170.821 55ZM160.421 61L159.821 60.7L170.121 54.7L170.421 55.3L160.421 61ZM185.121 45.5L184.821 45.7L185.121 44.8V45.5ZM185.621 45.2V44.5L195.421 38.8C195.421 39 195.521 39.3 195.521 39.5L185.621 45.2ZM158.921 60.7L152.721 64.2H151.521L158.421 60.3C158.621 60.4 158.721 60.6 158.921 60.7ZM151.921 64.8L148.921 66.4V65.7L150.621 64.8H151.921ZM159.521 60.4V59.6L168.721 54.2H169.821L169.921 54.3L159.521 60.4ZM185.621 44V43.2L195.321 37.6C195.321 37.8 195.421 38.1 195.421 38.3L185.621 44ZM158.821 60L158.921 59.9V60.1L158.821 60ZM158.021 60L150.621 64.2H149.321L157.421 59.6C157.621 59.7 157.821 59.9 158.021 60ZM149.721 64.8L148.921 65.2V64.8H149.721ZM167.821 54.2L159.521 59.1V58.4L166.621 54.2H167.821ZM158.421 59.7C158.221 59.6 158.121 59.4 157.921 59.3L158.921 58.7V59.4L158.421 59.7ZM185.621 42.7V42L195.121 36.5C195.121 36.7 195.221 36.9 195.221 37.1L185.621 42.7ZM157.021 59.2L148.921 63.9V63.2L156.521 58.8C156.721 58.9 156.821 59.1 157.021 59.2ZM165.721 54.2L159.521 57.9V57.1L164.421 54.2H165.721ZM157.521 59C157.321 58.9 157.221 58.6 157.021 58.5L158.921 57.4V58.1L157.521 59ZM185.621 41.5V41V40.7L194.921 35.4C195.021 35.6 195.021 35.8 195.021 36L185.621 41.5ZM156.221 58.5L148.921 62.7V62L155.721 58C155.921 58.2 156.021 58.4 156.221 58.5ZM163.521 54.2L159.521 56.6V55.9L162.321 54.2H163.521ZM156.621 58.2C156.421 58.1 156.421 58 156.221 57.8L158.921 56.2V56.9L156.621 58.2ZM185.621 40.2V39.5L194.621 34.3C194.721 34.5 194.621 34.7 194.721 34.9L185.621 40.2ZM155.421 57.7L148.921 61.4V60.7L154.921 57.2C155.021 57.4 155.221 57.5 155.421 57.7ZM161.421 54.2L159.521 55.4V54.6C159.721 54.5 159.921 54.3 160.121 54.2H161.421ZM155.821 57.5C155.621 57.3 155.521 57.2 155.421 57L158.921 54.9V55.6L155.821 57.5ZM185.621 39V38.2L194.221 33.2C194.321 33.4 194.321 33.7 194.421 33.9L185.621 39ZM154.621 56.9L148.921 60.2V59.5L154.221 56.4C154.321 56.6 154.521 56.7 154.621 56.9ZM155.121 56.7C155.021 56.5 154.721 56.4 154.621 56.2L157.921 54.2H158.921V54.4L155.121 56.7ZM185.621 37.7V37L193.821 32.2L194.121 32.8L185.621 37.7ZM158.821 53.8L158.921 53.7V53.8H158.821ZM153.921 56.1L148.921 58.9V58.2L153.521 55.6C153.621 55.8 153.821 55.9 153.921 56.1ZM157.921 53.8H156.621L158.921 52.4V53.1L157.921 53.8ZM157.021 54.2L154.321 55.8C154.221 55.6 154.021 55.5 153.921 55.3L155.821 54.2H157.021ZM185.621 36.5V35.7L193.421 31.2C193.521 31.4 193.521 31.6 193.621 31.8L185.621 36.5ZM184.921 36.8C184.821 36.6 184.821 36.4 184.721 36.2L185.121 36V36.8H184.921ZM153.221 55.2L148.921 57.7V57L152.821 54.7C152.921 54.9 153.121 55 153.221 55.2ZM155.821 53.8H154.521L158.921 51.2V51.9L155.821 53.8ZM154.921 54.2L153.721 55C153.621 54.8 153.421 54.7 153.321 54.5L153.621 54.2H154.921ZM185.621 35.2V34.5L192.921 30.3C193.021 30.5 193.121 30.6 193.221 30.8L185.621 35.2ZM184.621 35.8L184.321 35.2L185.121 34.8V35.5L184.621 35.8ZM152.621 54.3L148.921 56.4V55.7L151.521 54.2H152.521L152.621 54.3ZM153.621 53.8H152.821C152.821 53.7 152.721 53.7 152.721 53.6L158.921 49.9V50.6L153.621 53.8ZM185.621 34V33.2L192.421 29.3L192.721 29.9L185.621 34ZM184.121 34.8C184.021 34.6 183.921 34.5 183.821 34.3L185.121 33.5V34.3L184.121 34.8ZM150.621 54.2L148.921 55.2V54.5L149.321 54.2H150.621ZM152.421 53.2L152.121 52.6L158.921 48.7V49.4L152.421 53.2ZM152.021 53.4L151.421 53.8H150.221L151.721 52.9C151.821 53.1 151.921 53.2 152.021 53.4ZM185.621 32.7V32L191.821 28.4C191.921 28.6 192.121 28.7 192.221 28.9L185.621 32.7ZM183.621 33.9C183.521 33.7 183.321 33.6 183.221 33.4L185.121 32.3V33L183.621 33.9ZM151.921 52.2C151.821 52 151.721 51.9 151.621 51.7L158.921 47.4V48.1L151.921 52.2ZM151.521 52.5L149.321 53.8H148.921V53.2L151.221 51.9L151.521 52.5ZM191.121 28.2L185.621 31.5V30.7L189.921 28.2H191.121ZM182.921 33C182.821 32.8 182.621 32.7 182.521 32.5L185.121 31V31.8L182.921 33ZM151.421 51.3L151.121 50.7L158.921 46.2V46.9L151.421 51.3ZM150.921 51.5L148.921 52.7V52L150.721 51C150.821 51.2 150.821 51.3 150.921 51.5ZM189.021 28.2L185.621 30.2V29.5C186.321 29.1 187.021 28.6 187.721 28.2H189.021ZM190.921 27.1C190.521 27.3 190.321 27.6 189.921 27.8H188.621L190.621 26.6C190.721 26.8 190.821 26.9 190.921 27.1ZM182.321 32.2C182.221 32 182.021 31.9 181.821 31.7L185.121 29.8V30.5L182.321 32.2ZM191.221 27.5C191.321 27.6 191.321 27.7 191.421 27.8H190.821L191.221 27.5ZM150.921 50.3C150.821 50.1 150.821 49.9 150.721 49.7L158.921 44.9V45.6L150.921 50.3ZM150.521 50.5L148.921 51.4V50.7L150.221 50C150.321 50.2 150.421 50.3 150.521 50.5ZM186.821 28.2L185.621 29V28.2H186.821ZM190.321 26.3L187.721 27.8H186.421L189.921 25.8C190.021 26 190.221 26.1 190.321 26.3ZM181.521 31.4C181.321 31.2 181.221 31 181.021 30.9L185.121 28.5V29.3L181.521 31.4ZM150.521 49.3C150.421 49.1 150.421 48.9 150.321 48.7L158.921 43.7V44.4L150.521 49.3ZM150.121 49.5L148.921 50.2V49.5L149.921 48.9C150.021 49.1 150.021 49.3 150.121 49.5ZM189.521 25.4L185.621 27.7V27L189.121 25C189.221 25.2 189.421 25.2 189.521 25.4ZM180.621 30.6C180.421 30.5 180.321 30.3 180.121 30.2L183.421 28.2H184.721L180.621 30.6ZM150.121 48.2C150.021 48 150.121 47.8 150.021 47.6L158.921 42.4V43.1L150.121 48.2ZM149.721 48.5L148.921 48.9V48.2L149.521 47.9C149.621 48.1 149.621 48.3 149.721 48.5ZM183.421 27.8H182.121L185.121 26V26.8L183.421 27.8ZM188.821 24.6L185.621 26.5V25.7L188.321 24.2C188.521 24.4 188.621 24.4 188.821 24.6ZM179.721 29.9C179.521 29.8 179.321 29.6 179.121 29.5C179.821 29.1 180.621 28.6 181.321 28.2H182.521L179.721 29.9ZM184.321 27.8L185.121 27.3V27.8H184.321ZM149.821 47.2C149.721 47 149.821 46.7 149.721 46.5L158.921 41.2V41.9L149.821 47.2ZM149.421 47.4L148.921 47.7V47L149.221 46.8C149.321 47 149.321 47.2 149.421 47.4ZM181.221 27.8H180.021L185.121 24.8V25.5L181.221 27.8ZM188.021 23.8L185.621 25.2V24.5L187.521 23.4C187.721 23.5 187.821 23.7 188.021 23.8ZM178.621 29.3C178.421 29.2 178.121 29 177.921 28.9L179.121 28.2H180.421C179.821 28.5 179.221 29 178.621 29.3ZM149.621 46.1C149.621 45.9 149.421 45.6 149.421 45.4L158.921 39.9V40.6L149.621 46.1ZM149.121 46.4H148.921V45.7H149.021C149.021 45.9 149.121 46.2 149.121 46.4ZM179.121 27.8H177.821L185.121 23.5V24.3L179.121 27.8ZM187.121 23.1L185.621 24V23.2L186.621 22.7C186.821 22.8 186.921 23 187.121 23.1ZM177.421 28.7C177.121 28.6 176.921 28.5 176.621 28.4L176.921 28.2H178.221L177.421 28.7ZM149.321 45C149.321 44.8 149.221 44.5 149.221 44.3L158.921 38.7V39.4L149.321 45ZM176.921 27.8H175.621L185.121 22.3V23L176.921 27.8ZM186.221 22.4L185.621 22.7V22C185.821 22.1 186.021 22.3 186.221 22.4ZM149.221 43.8C149.221 43.6 149.121 43.3 149.121 43.1L158.921 37.4V38.1L149.221 43.8ZM174.721 27.8H173.521L184.621 21.3C184.821 21.4 184.921 21.5 185.121 21.6V21.8L174.721 27.8ZM149.121 42.6C149.121 42.4 149.021 42.1 149.021 41.9L158.921 36.2V36.9L149.121 42.6ZM172.621 27.8H172.521H171.321L183.621 20.7L184.221 21L172.621 27.8ZM149.021 41.4V41V40.7L158.721 35.1L158.921 35.5V35.6L149.021 41.4ZM170.421 27.8H169.221L182.421 20.1C182.621 20.2 182.921 20.3 183.121 20.4L170.421 27.8ZM158.921 34.4L158.621 33.9L158.921 33.7V34.4ZM158.521 34.7L149.021 40.1C149.021 39.8 149.121 39.6 149.121 39.4L158.121 34.1L158.521 34.7ZM168.321 27.8H167.121V27.7L181.221 19.5C181.421 19.6 181.721 19.7 181.921 19.8L168.321 27.8ZM158.421 33.5L158.021 32.9L158.921 32.4V33.1L158.421 33.5ZM157.921 33.7L149.121 38.9C149.121 38.6 149.221 38.4 149.221 38.1L157.621 33.2L157.921 33.7ZM166.121 27.8H164.921L166.121 27L166.421 27.6L166.121 27.8ZM180.721 19.3L166.921 27.3L166.521 26.8L179.921 19C180.221 19.1 180.421 19.2 180.721 19.3ZM157.821 32.6L157.521 32L158.921 31.2V31.9L157.821 32.6ZM157.421 32.8L149.321 37.5C149.321 37.2 149.321 37 149.421 36.7L157.121 32.3L157.421 32.8ZM164.021 27.8H162.721L165.621 26.1L165.921 26.6L164.021 27.8ZM179.321 18.8L166.321 26.4L166.021 25.8L178.521 18.6C178.821 18.7 179.021 18.7 179.321 18.8ZM157.321 31.6L157.021 31.1L158.921 29.9V30.6L157.321 31.6ZM156.821 31.9L149.521 36.1C149.621 35.8 149.621 35.6 149.721 35.3L156.521 31.3L156.821 31.9ZM161.821 27.8H160.521L165.021 25.2L165.321 25.7L161.821 27.8ZM177.921 18.4L165.821 25.4L165.521 24.9L177.021 18.2C177.321 18.3 177.621 18.3 177.921 18.4ZM148.921 35.7L149.121 35.6C149.021 35.9 149.021 36.1 148.921 36.4V35.7ZM156.721 30.7L156.421 30.1L158.921 28.7V29.4L156.721 30.7ZM156.321 30.9L149.921 34.6C150.021 34.3 150.121 34.1 150.221 33.8L156.021 30.4L156.321 30.9ZM148.921 35.2V34.5L149.521 34.1C149.421 34.4 149.421 34.7 149.321 35L148.921 35.2ZM158.821 28.2L156.221 29.7L155.921 29.2L157.521 28.2H158.821ZM159.621 27.8H159.521V27.1L164.521 24.2L164.821 24.8L159.621 27.8ZM176.321 18.1L165.221 24.5L164.921 24L175.321 17.9C175.621 17.9 176.021 18 176.321 18.1ZM155.821 30L150.421 33.1L150.721 32.2L155.421 29.5L155.821 30ZM148.921 33.9V33.2L150.021 32.6L149.721 33.5L148.921 33.9ZM156.621 28.2L155.621 28.8L155.321 28.3L155.421 28.2H156.621ZM158.921 26.9L157.521 27.8H156.221L158.921 26.2V26.9ZM164.221 23.8L159.521 26.6V25.9L163.921 23.3L164.221 23.8ZM174.621 17.9L164.721 23.6L164.421 23L173.421 17.8C173.821 17.8 174.221 17.9 174.621 17.9ZM155.221 29.1L151.021 31.5C151.221 31.2 151.321 30.8 151.521 30.5L154.921 28.5L155.221 29.1ZM148.921 32.7V32L150.821 30.9C150.621 31.2 150.421 31.6 150.321 31.9L148.921 32.7ZM158.921 27.4V27.8H158.421L158.921 27.4ZM158.921 25.6L155.321 27.8H155.021L154.821 27.3L158.921 24.9V25.6ZM163.721 22.9L159.521 25.4V24.6L163.421 22.3L163.721 22.9ZM172.621 17.8L164.121 22.6L163.821 22.1L171.321 17.8H172.321H172.621ZM154.521 28.2L151.921 29.7C152.121 29.3 152.421 29 152.621 28.6L153.221 28.2H154.521ZM148.921 31.4V30.7L151.721 29.1C151.521 29.5 151.321 29.8 151.121 30.2L148.921 31.4ZM158.921 24.4L154.621 26.9L154.221 26.4L158.921 23.7V24.4ZM163.221 22L159.521 24.1V23.4L162.821 21.4L163.221 22ZM170.321 17.8L163.621 21.7L163.321 21.2L168.721 18C169.221 17.9 169.821 17.8 170.321 17.8ZM154.121 27.2L153.221 27.8C153.421 27.5 153.721 27.1 153.921 26.8L154.121 27.2ZM148.921 30.2V29.5C149.621 29.1 150.321 28.6 151.021 28.2H152.221V28.3L148.921 30.2ZM154.321 27.6L154.421 27.8H154.121L154.321 27.6ZM158.921 23.1L155.021 25.4C155.621 24.8 156.121 24.2 156.721 23.7L158.921 22.4V23.1ZM162.621 21L159.521 22.9V22.1L162.321 20.5L162.621 21ZM167.421 18.3C166.021 19.1 164.521 20 163.121 20.8L162.721 20.2L165.021 18.9C165.821 18.6 166.621 18.5 167.421 18.3ZM153.621 26.3L151.021 27.8H149.721L153.321 25.7L153.621 26.3ZM150.121 28.2C149.721 28.4 149.321 28.7 148.921 28.9V28.2H150.121ZM151.921 27.8L153.021 27.1C152.821 27.3 152.721 27.6 152.621 27.8H151.921ZM153.521 25.1L153.221 24.5L158.921 21.2V21.3C158.021 21.9 157.121 22.6 156.321 23.4L153.521 25.1ZM161.921 20.2L159.521 21.6C160.321 21 161.021 20.5 161.921 20.2ZM165.021 18.4C164.121 18.7 163.221 19 162.321 19.4L162.221 19.3L164.921 17.8H166.121L165.021 18.4ZM153.021 25.3L148.921 27.7V27L152.721 24.8L153.021 25.3ZM153.721 25.5L155.021 24.7C154.621 25.1 154.221 25.5 153.921 25.9L153.721 25.5ZM152.921 24.1L152.621 23.6L158.921 19.9V20.6L152.921 24.1ZM159.521 20.4V19.6L161.221 18.6L161.521 19.2L159.521 20.4ZM162.021 18.9L161.621 18.4L162.721 17.8H164.021L162.021 18.9ZM152.521 24.4L148.921 26.4V25.7L152.221 23.8L152.521 24.4ZM159.521 20.9C160.321 20.3 161.021 19.9 161.821 19.5V19.7C161.021 20.1 160.321 20.5 159.521 21V20.9ZM152.421 23.2L152.121 22.7L158.921 18.7V19.4L152.421 23.2ZM159.521 19.1V18.4L160.521 17.8H160.721L161.021 18.2L159.521 19.1ZM161.421 18L161.321 17.8H161.821L161.421 18ZM152.021 23.4L148.921 25.2V24.5L151.621 22.9L152.021 23.4ZM151.821 22.3L151.521 21.7L158.421 17.8H158.921V18.1L151.821 22.3ZM151.421 22.5L148.921 23.9V23.2L151.121 22L151.421 22.5ZM157.521 17.8L151.321 21.3L151.021 20.8L156.221 17.8H157.521ZM150.921 21.6L148.921 22.7V22L150.621 21L150.921 21.6ZM155.321 17.8L150.821 20.4L150.421 19.8L154.121 17.8H155.321ZM150.321 20.6L148.921 21.4V20.7L150.021 20.1L150.321 20.6ZM153.221 17.8C152.221 18.4 151.221 18.9 150.221 19.5L149.921 18.9L151.921 17.8H153.221ZM149.821 19.7L148.921 20.2V19.5L149.521 19.2L149.821 19.7ZM151.021 17.8L149.721 18.5L149.421 18L149.721 17.8H151.021ZM149.221 18.8L148.921 18.9V18.3L149.221 18.8ZM159.421 18.1L159.521 17.8H159.721L159.421 18.1ZM179.921 63.5C179.121 63.8 178.621 64.2 178.621 64.2L177.921 64.3L179.921 63.5ZM257.401 17.8V24.8C253.201 21.2 248.201 18.8 242.601 17.8H257.401ZM257.401 79.8H242.601C248.201 78.8 253.201 76.3 257.401 72.7V79.8ZM268.001 27.8H260.401C259.601 26.9 258.901 26.1 258.001 25.3V17.8H268.001V27.8ZM268.001 28.2V43.1C267.001 37.5 264.501 32.4 260.901 28.2H268.001ZM268.001 69.2H260.901C264.501 65 267.001 60 268.001 54.4V69.2ZM268.001 69.8V79.8H258.001V72.2C258.901 71.4 259.601 70.7 260.401 69.8H268.001ZM215.901 69.8V71.5L214.201 69.8H215.901ZM227.001 28.2H232.201C230.301 28.6 228.601 29.4 227.001 30.3V28.2ZM215.901 27.8H214.201C214.801 27.2 215.301 26.6 215.901 26V27.8ZM215.901 28.2V69.2H213.701C208.901 63.7 206.001 56.7 206.001 48.8C206.001 40.9 208.901 33.7 213.701 28.2H215.901ZM268.901 17.2H268.401V3.5H268.001V17.2H258.001V3.5H257.401V17.2H237.001H227.001V3.5H226.401V17.2H216.401V3.5H215.901V17.2H208.301V17.8H215.901V25.3C215.001 26.1 214.301 26.9 213.501 27.8H208.301V28.2H213.001C208.301 33.7 205.401 41 205.401 48.8C205.401 56.6 208.301 63.7 213.001 69.2H209.401V69.8H213.501C214.301 70.7 215.001 71.4 215.901 72.2V79.8H209.401V80.2H215.901V95.1H216.401V80.2H226.401V95.1H227.001V80.2H237.001H257.401V95.1H258.001V80.2H268.001V95.1H268.401V80.2H269.001V79.8H268.401V69.8H269.001V69.2H268.401V48.8V28.2H268.901V27.8H268.401V17.8H268.901V17.2ZM251.901 75.9C250.301 76.8 248.501 77.6 246.701 78.2L257.401 72C256.001 73.2 254.601 74.2 253.001 75.2L251.901 75.9ZM244.901 78.7C244.201 78.9 243.501 79.1 242.801 79.2L257.401 70.7V71.4L244.901 78.7ZM258.001 71.2V70.4L259.101 69.8H259.701C259.401 70.1 259.301 70.3 259.001 70.6L258.001 71.2ZM260.001 69.2L260.401 69L260.201 69.2H260.001ZM241.501 79.4C241.001 79.5 240.401 79.5 239.901 79.6L257.001 69.8H257.401V70.2L241.501 79.4ZM258.001 69.9V69.8H258.201L258.001 69.9ZM259.101 69.2H258.001L262.201 66.7C261.901 67.1 261.501 67.6 261.201 68L259.101 69.2ZM238.901 79.7H237.501L254.801 69.8H256.101L238.901 79.7ZM257.401 68.9L256.901 69.2H255.701L257.401 68.2V68.9ZM262.801 65.8L258.001 68.7V67.9L263.501 64.7C263.301 65.1 263.101 65.4 262.801 65.8ZM236.601 79.7H235.401L252.601 69.8H253.901L236.601 79.7ZM257.401 67.7L254.801 69.2H253.501L257.401 67V67.7ZM264.001 63.9L258.001 67.4V66.7L264.601 62.8C264.401 63.2 264.201 63.6 264.001 63.9ZM234.601 79.7C234.201 79.7 233.901 79.6 233.501 79.6L250.501 69.8H251.701L234.601 79.7ZM257.401 66.4L252.601 69.2H251.301L257.401 65.7V66.4ZM264.901 62.1L258.001 66.2V65.4L265.401 61.1C265.301 61.4 265.101 61.8 264.901 62.1ZM232.801 79.5C232.501 79.5 232.101 79.4 231.801 79.3L248.301 69.8H249.601L232.801 79.5ZM257.401 65.2L250.401 69.2H249.201L257.401 64.5V65.2ZM265.701 60.4L258.001 64.9V64.2L266.001 59.5L265.701 60.4ZM231.101 79.8V79.7C231.201 79.7 231.201 79.8 231.301 79.8H231.101ZM230.201 79.8H228.901L229.501 79.4C229.801 79.5 230.201 79.5 230.501 79.6L230.201 79.8ZM231.101 79.2C230.801 79.1 230.501 79.1 230.201 79L246.201 69.8H247.401L231.101 79.2ZM257.401 63.9L248.301 69.2H247.001L257.401 63.2V63.9ZM266.301 58.8L258.001 63.7V62.9L266.601 57.9L266.301 58.8ZM228.001 79.8H227.001V79.6L228.101 79C228.401 79.1 228.601 79.1 228.901 79.2L228.001 79.8ZM229.501 78.9C229.201 78.8 229.001 78.7 228.701 78.6L244.001 69.8H245.301L229.501 78.9ZM257.401 62.7L246.101 69.2H244.901L257.401 62V62.7ZM266.801 57.3L258.001 62.4V61.7L267.001 56.4C266.901 56.7 266.901 57 266.801 57.3ZM227.501 78.8L227.001 79.1V78.6C227.201 78.7 227.301 78.7 227.501 78.8ZM226.401 79.4L225.801 79.8H224.601L226.401 78.7V79.4ZM228.101 78.5C227.801 78.4 227.601 78.3 227.301 78.2L241.801 69.8H243.101L228.101 78.5ZM257.401 61.4L244.001 69.2H242.701L243.801 68.6C246.401 67.7 248.801 66.4 250.801 64.6L257.401 60.7V61.4ZM267.101 55.8L258.001 61.2V60.4L267.301 55C267.201 55.3 267.201 55.5 267.101 55.8ZM257.401 60.2L252.201 63.3L253.401 61.8L257.401 59.5V60.2ZM267.401 54.4L258.001 59.9V59.2L267.601 53.6C267.601 53.9 267.401 54.1 267.401 54.4ZM226.101 78.3L223.701 79.8H222.401L225.401 78C225.701 78.1 225.801 78.2 226.101 78.3ZM227.001 77.9V77.1L239.701 69.8H240.901L227.001 77.9ZM224.801 77.8L221.501 79.8H220.301L224.101 77.5C224.301 77.6 224.601 77.7 224.801 77.8ZM227.001 76.6V75.9L237.501 69.8H238.801L227.001 76.6ZM225.401 77.5C225.201 77.4 224.801 77.3 224.601 77.2L226.401 76.2V76.9L225.401 77.5ZM225.901 77.7L226.401 77.4V77.9C226.201 77.8 226.101 77.8 225.901 77.7ZM257.401 58.9L254.101 60.9C254.401 60.5 254.701 60.1 254.901 59.7L257.401 58.2V58.9ZM267.701 53L258.001 58.7V57.9L267.801 52.2C267.801 52.5 267.701 52.7 267.701 53ZM223.601 77.3L219.401 79.8H218.101L222.901 77C223.101 77.1 223.401 77.2 223.601 77.3ZM227.001 75.4V74.6L235.401 69.8H236.601L227.001 75.4ZM224.101 77C223.901 76.9 223.601 76.8 223.401 76.7L226.401 74.9V75.6L224.101 77ZM257.401 57.7L255.301 58.9C255.501 58.6 255.701 58.3 255.901 57.9L257.401 57V57.7ZM267.801 51.7L258.001 57.4V56.7L267.901 50.9C267.901 51.2 267.801 51.4 267.801 51.7ZM222.401 76.7L217.201 79.8H216.401V79.5L221.801 76.4L222.401 76.7ZM227.001 74.1V73.4L233.201 69.8H234.501L227.001 74.1ZM223.001 76.4C222.801 76.3 222.501 76.2 222.301 76.1L226.401 73.7V74.4L223.001 76.4ZM257.401 56.4L256.201 57.2C256.301 56.9 256.501 56.5 256.601 56.2L257.401 55.7V56.4ZM267.901 50.4L258.001 56.2V55.4L267.901 49.6V50.4ZM221.301 76.1L216.401 78.9V78.2L220.701 75.7C220.901 75.8 221.101 76 221.301 76.1ZM227.001 72.9V72.1L231.101 69.8H232.301L227.001 72.9ZM221.801 75.8L221.201 75.5L226.401 72.4V73.1L221.801 75.8ZM257.401 55.2L256.801 55.6L257.101 54.7L257.401 54.5V55.2ZM267.901 49.1L258.001 54.9V54.2L267.901 48.4C267.901 48.5 268.001 48.7 268.001 48.8C268.001 48.9 267.901 49 267.901 49.1ZM220.301 75.5L216.401 77.7V77L219.701 75.1C219.901 75.2 220.101 75.4 220.301 75.5ZM227.001 71.6V70.9L228.901 69.8H230.201L227.001 71.6ZM220.801 75.2C220.601 75.1 220.401 74.9 220.201 74.8L226.401 71.2V71.9L220.801 75.2ZM257.401 53.9L257.301 54C257.401 53.8 257.301 53.5 257.401 53.3V53.9ZM267.901 47.9L258.001 53.7V52.9L267.901 47.2V47.9ZM219.301 74.8L216.401 76.4V75.7L218.701 74.4C218.901 74.5 219.101 74.7 219.301 74.8ZM227.001 70.4V69.8H228.001L227.001 70.4ZM219.701 74.5C219.501 74.4 219.401 74.2 219.201 74.1L226.401 69.9V70.6L219.701 74.5ZM267.901 46.7L258.001 52.4V51.7L267.801 46C267.801 46.2 267.901 46.5 267.901 46.7ZM227.001 69.2V69.1V68.4V68.3V67.2C228.701 68.1 230.501 68.8 232.401 69.2H227.001ZM218.301 74.1L216.401 75.2V74.5L217.701 73.7C217.901 73.8 218.101 74 218.301 74.1ZM225.801 69.8L218.801 73.8C218.601 73.7 218.401 73.5 218.201 73.4L224.601 69.8H225.801ZM267.801 45.5L258.001 51.2V50.4L267.701 44.8C267.701 45 267.801 45.3 267.801 45.5ZM267.601 44.3L258.001 49.9V49.2L267.501 43.6C267.501 43.8 267.601 44.1 267.601 44.3ZM217.401 73.4L216.401 73.9V73.2L216.801 73C217.001 73.1 217.201 73.3 217.401 73.4ZM226.401 68.1L224.501 69.2H223.301L226.401 67.4V68.1ZM223.701 69.8L217.801 73.1C217.601 73 217.501 72.8 217.301 72.7L222.401 69.8H223.701ZM226.401 68.7V69.2H225.401L226.401 68.7ZM267.401 43.2L258.001 48.7V47.9L267.301 42.5C267.301 42.7 267.401 43 267.401 43.2ZM227.001 66.6V65.8V64.6V64.1V63.4V63.3V62.1V61.6V60.9V60.8V59.6V59.1V58.4V58.3V57.1V56.6V55.9V54.6V54.1V53.4V52.1V51.6V50.9V49.6V49.1V48.4V47.1V46.6V45.9V44.6V44.1V43.4V42.9V42.1V41.6V40.9V40.4V39.6V39.1V38.4V37.9V30.8C229.601 29.3 232.501 28.4 235.601 28.2H238.501C249.101 28.9 257.401 37.9 257.401 48.7C257.401 60 248.301 69.2 237.001 69.2C233.401 69.2 230.001 68.3 227.001 66.6ZM226.401 66.9L222.401 69.2H221.101L225.801 66.5C226.001 66.6 226.201 66.8 226.401 66.9ZM221.501 69.8L216.901 72.4C216.701 72.3 216.601 72.1 216.401 72L220.301 69.8H221.501ZM267.201 42L258.001 47.4V46.7L267.101 41.4C267.201 41.6 267.201 41.8 267.201 42ZM225.401 66.2L220.201 69.2H219.001L224.801 65.9L225.401 66.2ZM219.401 69.8L216.401 71.4V70.7L218.101 69.8H219.401ZM225.901 66C225.701 65.9 225.501 65.7 225.301 65.6L226.401 64.9V65.6L225.901 66ZM226.301 66.2H226.401V66.3L226.301 66.2ZM267.001 40.9L258.001 46.2V45.4L266.801 40.3C266.901 40.5 266.901 40.7 267.001 40.9ZM224.401 65.6L218.101 69.2H216.801L223.901 65.1C224.101 65.2 224.201 65.5 224.401 65.6ZM217.201 69.8L216.401 70.2V69.8H217.201ZM224.901 65.3C224.701 65.2 224.601 65 224.401 64.9L226.401 63.7V64.4L224.901 65.3ZM266.701 39.9L258.001 44.9V44.2L266.501 39.2C266.601 39.4 266.601 39.7 266.701 39.9ZM223.501 64.8L216.401 68.9V68.2L223.001 64.4C223.201 64.5 223.301 64.7 223.501 64.8ZM224.001 64.6C223.801 64.5 223.701 64.2 223.501 64.1L226.401 62.4V63.1L224.001 64.6ZM257.301 43.3L257.401 43.2V43.9C257.401 43.7 257.401 43.5 257.301 43.3ZM266.301 38.8L258.001 43.7V42.9L266.101 38.2C266.201 38.4 266.201 38.6 266.301 38.8ZM222.701 64.1L216.401 67.7V67L222.201 63.6C222.401 63.8 222.501 64 222.701 64.1ZM223.101 63.8C222.901 63.7 222.801 63.6 222.601 63.4L226.401 61.2V61.9L223.101 63.8ZM257.101 42.9C257.001 42.7 257.001 42.5 256.901 42.3L257.401 42V42.7L257.101 42.9ZM265.901 37.8L258.001 42.4V41.7L265.701 37.2C265.801 37.4 265.801 37.6 265.901 37.8ZM221.901 63.3L216.401 66.4V65.7L221.401 62.8C221.501 63 221.801 63.1 221.901 63.3ZM222.301 63C222.101 62.8 222.001 62.8 221.901 62.6L226.401 59.9V60.6L222.301 63ZM256.801 41.8C256.701 41.6 256.701 41.4 256.601 41.2L257.401 40.7V41.4L256.801 41.8ZM265.501 36.8L258.001 41.2V40.4L265.301 36.2C265.401 36.4 265.401 36.6 265.501 36.8ZM221.101 62.5L216.401 65.2V64.5L220.701 62C220.801 62.2 221.001 62.3 221.101 62.5ZM221.601 62.2C221.501 62 221.301 61.9 221.201 61.7L226.401 58.7V59.4L221.601 62.2ZM256.401 40.8C256.301 40.6 256.301 40.4 256.201 40.2L257.401 39.5V40.2L256.401 40.8ZM265.101 35.8L258.001 39.9V39.2L264.801 35.2L265.101 35.8ZM220.401 61.6L216.401 63.9V63.2L220.001 61.1C220.101 61.3 220.301 61.4 220.401 61.6ZM220.901 61.4C220.801 61.2 220.601 61.1 220.501 60.9L226.401 57.4V58.1L220.901 61.4ZM256.001 39.8L255.701 39.2L257.401 38.2V38.9L256.001 39.8ZM264.601 34.8L258.001 38.7V37.9L264.301 34.2L264.601 34.8ZM219.801 60.8L216.401 62.7V62L219.401 60.2C219.501 60.4 219.701 60.6 219.801 60.8ZM220.201 60.5C220.101 60.3 220.001 60.2 219.901 60L226.401 56.2V56.9L220.201 60.5ZM255.501 38.8C255.401 38.6 255.301 38.5 255.201 38.3L257.401 37V37.7L255.501 38.8ZM264.101 33.8L258.001 37.4V36.7L263.801 33.3C263.901 33.5 264.001 33.6 264.101 33.8ZM219.201 59.9L216.401 61.4V60.7L218.901 59.3L219.201 59.9ZM219.601 59.6C219.501 59.4 219.401 59.3 219.301 59.1L226.401 54.9V55.6L219.601 59.6ZM255.001 37.9C254.901 37.7 254.701 37.5 254.601 37.3L257.401 35.7V36.4L255.001 37.9ZM263.601 32.9L258.001 36.2V35.4L263.301 32.4C263.401 32.6 263.501 32.7 263.601 32.9ZM218.601 58.9L216.401 60.2V59.5L218.301 58.4C218.401 58.6 218.501 58.7 218.601 58.9ZM219.101 58.7L218.801 58.1L226.401 53.7V54.4L219.101 58.7ZM254.401 37C254.301 36.8 254.101 36.6 254.001 36.4L257.401 34.5V35.2L254.401 37ZM263.001 32L258.001 34.9V34.2L262.701 31.4L263.001 32ZM218.101 58L216.401 58.9V58.2L217.901 57.4C218.001 57.6 218.001 57.8 218.101 58ZM218.601 57.7L218.301 57.1L226.401 52.4V53.1L218.601 57.7ZM253.801 36.1C253.701 35.9 253.501 35.8 253.401 35.6L257.401 33.2V33.9L253.801 36.1ZM262.401 31.1L258.001 33.7V32.9L262.001 30.6C262.101 30.8 262.301 30.9 262.401 31.1ZM217.701 57L216.401 57.7V57L217.401 56.4L217.701 57ZM218.101 56.7C218.001 56.5 218.001 56.3 217.901 56.1L226.401 51.2V51.9L218.101 56.7ZM253.101 35.2C253.001 35 252.801 34.9 252.701 34.7L257.401 32V32.7L253.101 35.2ZM261.801 30.2L258.001 32.4V31.7L261.401 29.7C261.501 29.9 261.701 30 261.801 30.2ZM217.301 56L216.401 56.4V55.7L217.101 55.4C217.201 55.6 217.201 55.8 217.301 56ZM217.701 55.7C217.601 55.5 217.601 55.3 217.501 55.1L226.401 49.9V50.6L217.701 55.7ZM252.401 34.4C252.301 34.2 252.101 34.1 251.901 33.9L257.401 30.7V31.4L252.401 34.4ZM261.101 29.3L258.001 31.2V30.4L260.701 28.8C260.801 29 261.001 29.1 261.101 29.3ZM216.901 54.9L216.401 55.2V54.5L216.701 54.3C216.801 54.5 216.801 54.7 216.901 54.9ZM217.401 54.7C217.301 54.5 217.301 54.2 217.201 54L226.401 48.7V49.4L217.401 54.7ZM251.601 33.6C251.401 33.4 251.301 33.2 251.101 33.1L257.401 29.5V30.2L251.601 33.6ZM260.401 28.5L258.001 29.9V29.2L259.501 28.2H260.201C260.301 28.3 260.301 28.4 260.401 28.5ZM216.601 53.8L216.401 53.9V53.2H216.501C216.501 53.4 216.501 53.6 216.601 53.8ZM217.101 53.6C217.001 53.4 216.901 53.1 216.901 52.9L226.401 47.4V48.1L217.101 53.6ZM250.701 32.8C250.501 32.7 250.401 32.5 250.201 32.4L257.401 28.2V28.9L250.701 32.8ZM258.601 28.2L258.001 28.7V28.2H258.601ZM259.501 27.8H258.301L259.201 27.2C259.401 27.4 259.601 27.5 259.701 27.7L259.501 27.8ZM216.801 52.5C216.801 52.3 216.701 52 216.701 51.8L226.401 46.2V46.9L216.801 52.5ZM257.401 27.8H256.101L257.401 27V27.7V27.8ZM256.501 28.2L249.801 32.1C249.601 32 249.501 31.8 249.301 31.7L255.201 28.2H256.501ZM258.901 26.9L258.001 27.4V26.7L258.401 26.4L258.901 26.9ZM216.701 51.3C216.701 51.1 216.601 50.8 216.601 50.6L226.401 44.9V45.6L216.701 51.3ZM255.201 27.8H253.901L257.401 25.7V26.4L255.201 27.8ZM254.301 28.2L248.901 31.4C248.701 31.3 248.501 31.1 248.301 31L253.101 28.2H254.301ZM258.101 26.1L258.001 26.2V26L258.101 26.1ZM216.501 50.1V49.4L226.401 43.7V44.4L216.501 50.1ZM253.001 27.8H251.801L256.701 24.9C256.901 25 257.001 25.2 257.201 25.3L253.001 27.8ZM252.201 28.2L247.901 30.7L247.301 30.4L250.901 28.2H252.201ZM216.501 48.9V48.7V48.2L226.401 42.4V43.1L216.501 48.9ZM250.901 27.8H249.601L255.801 24.2C256.001 24.3 256.201 24.5 256.401 24.6L250.901 27.8ZM250.001 28.2L246.801 30.1C246.601 30 246.301 29.9 246.101 29.8C247.001 29.3 247.901 28.7 248.801 28.2H250.001ZM216.501 47.6C216.501 47.3 216.601 47.2 216.601 46.9L226.401 41.2V41.9L216.501 47.6ZM248.701 27.8H247.501L254.901 23.5C255.101 23.6 255.201 23.8 255.401 23.9L248.701 27.8ZM247.901 28.2L245.601 29.5C245.401 29.4 245.101 29.3 244.901 29.2C245.501 28.9 246.001 28.5 246.601 28.2H247.901ZM216.601 46.3C216.601 46 216.701 45.8 216.701 45.5L226.401 39.9V40.6L216.601 46.3ZM246.601 27.8H245.301L253.901 22.8C254.101 22.9 254.301 23.1 254.501 23.2L246.601 27.8ZM245.701 28.2C245.301 28.5 244.801 28.7 244.401 29C244.101 28.9 243.901 28.8 243.601 28.7L244.401 28.2H245.701ZM216.801 45C216.901 44.7 216.901 44.4 217.001 44.1L226.401 38.7V39.4L216.801 45ZM244.401 27.8H243.101L252.801 22.1C253.001 22.2 253.301 22.4 253.501 22.5L244.401 27.8ZM243.501 28.2L243.001 28.6L242.101 28.3L242.301 28.2H243.501ZM216.401 43.9V43.2L216.801 43C216.701 43.3 216.701 43.6 216.601 43.9H216.401ZM217.201 43.5C217.301 43.2 217.301 42.9 217.401 42.6L226.401 37.4V38.1L217.201 43.5ZM242.201 27.8H241.001L251.801 21.5C252.001 21.6 252.201 21.8 252.401 21.9L242.201 27.8ZM216.401 42.7V42L217.301 41.5L217.001 42.4L216.401 42.7ZM217.601 42C217.701 41.7 217.901 41.4 218.001 41.1L226.401 36.2V36.9L217.601 42ZM240.101 27.8H238.801L250.601 20.9C250.801 21 251.101 21.2 251.301 21.3L240.101 27.8ZM216.401 41.4V40.7L218.001 39.8C217.801 40.1 217.601 40.5 217.501 40.8L216.401 41.4ZM218.301 40.4C218.501 40.1 218.601 39.7 218.801 39.4L226.401 34.9V35.6L218.301 40.4ZM238.001 27.7H237.001H236.801L249.401 20.4C249.601 20.5 249.901 20.6 250.101 20.7L238.001 27.7ZM216.401 40.2V39.5L218.901 38C218.701 38.4 218.501 38.7 218.301 39.1L216.401 40.2ZM219.201 38.6C219.401 38.2 219.601 37.9 219.801 37.5L226.401 33.7V34.4L219.201 38.6ZM235.801 27.7C235.701 27.7 235.701 27.8 235.601 27.8H234.501L248.201 19.8C248.401 19.9 248.701 20 248.901 20.1L235.801 27.7ZM216.401 38.9V38.2L220.301 36L219.401 37.2L216.401 38.9ZM220.401 36.6C220.701 36.1 221.101 35.7 221.501 35.3L226.401 32.4V33.1L220.401 36.6ZM233.601 27.8H232.401L246.801 19.4C247.101 19.5 247.301 19.5 247.601 19.6L233.601 27.8ZM216.401 37.7V37L222.701 33.3C222.101 33.8 221.601 34.4 221.101 35L216.401 37.7ZM222.601 34.1C223.601 33.1 224.701 32.4 225.801 31.6L226.401 31.2V31.9L222.601 34.1ZM231.501 27.8H230.201L245.401 18.9L246.301 19.2L231.501 27.8ZM216.401 36.4V35.7L226.401 29.9V30.6L224.901 31.5L216.401 36.4ZM229.301 27.8H228.001L243.901 18.5L244.801 18.8L229.301 27.8ZM216.401 35.2V34.5L226.401 28.7V29.4L216.401 35.2ZM216.401 33.9V33.2L225.001 28.2H226.301L216.401 33.9ZM227.101 27.8H227.001V27.1L242.301 18.2C242.601 18.3 243.001 18.3 243.301 18.4L227.101 27.8ZM225.901 27.8L226.401 27.4V27.8H225.901ZM216.401 32.7V32L222.901 28.2H224.101L216.401 32.7ZM225.001 27.8H223.701L226.401 26.2V26.9L225.001 27.8ZM241.601 18.1L227.001 26.6V25.9L240.601 18C240.901 18 241.301 18 241.601 18.1ZM216.401 31.4V30.7L220.701 28.2H222.001L216.401 31.4ZM222.801 27.8H221.601L226.401 24.9V25.6L222.801 27.8ZM239.901 17.9L227.001 25.4V24.6L238.701 17.8C239.101 17.8 239.501 17.9 239.901 17.9ZM216.401 30.2V29.5L218.501 28.2H219.801L216.401 30.2ZM220.701 27.8H219.401L226.401 23.7V24.4L220.701 27.8ZM237.901 17.8L227.001 24.1V23.4L236.701 17.8H237.001H237.901ZM216.401 28.9V28.2H217.601L216.401 28.9ZM218.501 27.8H217.201L226.401 22.4V23.1L218.501 27.8ZM235.701 17.8L227.001 22.9V22.1L234.301 17.9C234.801 17.9 235.201 17.8 235.701 17.8ZM226.401 21.9L216.401 27.7V27L226.401 21.2V21.9ZM233.201 18L227.001 21.6V20.9L231.501 18.2C232.101 18.1 232.601 18.1 233.201 18ZM226.401 20.6L216.401 26.4V25.7L226.401 19.9V20.6ZM230.201 18.5L227.001 20.4V19.6L227.801 19.1L230.201 18.5ZM229.501 18.1L230.201 17.8H231.301L229.501 18.1ZM225.601 19.9L217.701 24.5C220.101 22.6 222.701 21 225.601 19.9ZM227.901 18.6L227.001 18.9V18.4L228.001 17.8H229.301L227.901 18.6ZM216.401 24.5L218.201 23.5C217.601 23.9 217.001 24.3 216.401 24.8V24.5ZM224.401 19.8L226.401 18.7V19C225.701 19.2 225.101 19.5 224.401 19.8ZM216.401 23.9V23.2L225.901 17.8H226.401V18.1L216.401 23.9ZM227.001 17.9V17.8H227.101L227.001 17.9ZM216.401 22.7V22L223.701 17.8H225.001L216.401 22.7ZM216.401 21.4V20.7L221.601 17.8H222.801L216.401 21.4ZM216.401 20.2V19.5L219.401 17.8H220.701L216.401 20.2ZM216.401 18.9V18.2L217.201 17.8H218.501L216.401 18.9ZM304.781 17.2H298.681V3.59999H298.081V17.2H288.081V3.59999H287.681V17.2H279.981V17.8H287.681V79.8H280.081V80.2H287.681V95.1H288.081V80.2H298.081V95.1H298.681V80.2H306.481V79.8H298.681V17.8H304.781V17.2ZM297.481 79.8H296.281L298.081 78.7V79.4L297.481 79.8ZM295.381 79.8H294.081L298.081 77.4V78.1L295.381 79.8ZM293.181 79.8H291.981L298.081 76.2V76.9L293.181 79.8ZM291.081 79.8H289.781L298.081 74.9V75.6L291.081 79.8ZM288.881 79.8H288.081V79.5L298.081 73.7V74.4L288.881 79.8ZM288.081 78.9V78.2L298.081 72.4V73.1L288.081 78.9ZM288.081 77.7V77L298.081 71.2V71.9L288.081 77.7ZM288.081 76.4V75.7L298.081 69.9V70.6L288.081 76.4ZM288.081 75.2V74.5L298.081 68.7V69.4L288.081 75.2ZM288.081 73.9V73.2L298.081 67.4V68.1L288.081 73.9ZM288.081 72.7V72L298.081 66.2V66.9L288.081 72.7ZM288.081 71.4V70.7L298.081 64.9V65.6L288.081 71.4ZM288.081 70.2V69.5L298.081 63.7V64.4L288.081 70.2ZM288.081 68.9V68.2L298.081 62.4V63.1L288.081 68.9ZM288.081 67.7V67L298.081 61.2V61.9L288.081 67.7ZM288.081 66.4V65.7L298.081 59.9V60.6L288.081 66.4ZM288.081 65.2V64.5L298.081 58.7V59.4L288.081 65.2ZM288.081 63.9V63.2L298.081 57.4V58.1L288.081 63.9ZM288.081 62.7V62L298.081 56.2V56.9L288.081 62.7ZM288.081 61.4V60.7L298.081 54.9V55.6L288.081 61.4ZM288.081 60.2V59.5L298.081 53.7V54.4L288.081 60.2ZM288.081 58.9V58.2L298.081 52.4V53.1L288.081 58.9ZM288.081 57.7V57L298.081 51.2V51.9L288.081 57.7ZM288.081 56.4V55.7L298.081 49.9V50.6L288.081 56.4ZM288.081 55.2V54.5L298.081 48.7V49.4L288.081 55.2ZM288.081 53.9V53.2L298.081 47.4V48.1L288.081 53.9ZM288.081 52.7V52L298.081 46.2V46.9L288.081 52.7ZM288.081 51.4V50.7L298.081 44.9V45.6L288.081 51.4ZM288.081 50.2V49.5L298.081 43.7V44.4L288.081 50.2ZM288.081 48.9V48.2L298.081 42.4V43.1L288.081 48.9ZM288.081 47.7V47L298.081 41.2V41.9L288.081 47.7ZM288.081 46.4V45.7L298.081 39.9V40.6L288.081 46.4ZM288.081 45.2V44.5L298.081 38.7V39.4L288.081 45.2ZM288.081 43.9V43.2L298.081 37.4V38.1L288.081 43.9ZM288.081 42.7V42L298.081 36.2V36.9L288.081 42.7ZM288.081 41.4V40.7L298.081 34.9V35.6L288.081 41.4ZM288.081 40.2V39.5L298.081 33.7V34.4L288.081 40.2ZM288.081 38.9V38.2L298.081 32.4V33.1L288.081 38.9ZM288.081 37.7V37L298.081 31.2V31.9L288.081 37.7ZM288.081 36.4V35.7L298.081 29.9V30.6L288.081 36.4ZM288.081 35.2V34.5L298.081 28.7V29.4L288.081 35.2ZM288.081 33.9V33.2L298.081 27.4V28.1L288.081 33.9ZM288.081 32.7V32L298.081 26.2V26.9L288.081 32.7ZM288.081 31.4V30.7L298.081 24.9V25.6L288.081 31.4ZM288.081 30.2V29.5L298.081 23.7V24.4L288.081 30.2ZM288.081 28.9V28.2L298.081 22.4V23.1L288.081 28.9ZM288.081 27.7V27L298.081 21.2V21.9L288.081 27.7ZM288.081 26.4V25.7L298.081 19.9V20.6L288.081 26.4ZM288.081 25.2V24.5L298.081 18.7V19.4L288.081 25.2ZM288.081 23.9V23.2L297.581 17.8H298.081V18.1L288.081 23.9ZM288.081 22.7V22L295.381 17.8H296.681L288.081 22.7ZM288.081 21.4V20.7L293.281 17.8H294.481L288.081 21.4ZM288.081 20.2V19.5L291.081 17.8H292.381L288.081 20.2ZM288.081 18.9V18.2L288.881 17.8H290.181L288.081 18.9ZM359.15 80.8V80.2H370.15V80.8H359.15ZM343.85 80.8H329.15V80.2H341.55C342.35 80.4 343.05 80.7 343.85 80.8ZM355.35 80.8C356.15 80.7 356.85 80.4 357.65 80.2H358.55V80.8H355.35ZM380.45 59.1C380.95 57.6 381.25 56.1 381.55 54.5V59.1H380.45ZM380.25 59.6H381.55V69.2H374.85C377.15 66.3 378.95 63.1 380.25 59.6ZM370.15 74V79.8H359.35C363.35 78.6 367.05 76.6 370.15 74ZM370.55 73.5C371.95 72.3 373.15 71.2 374.35 69.8H381.55V79.8H370.55V73.5ZM329.15 74C332.25 76.6 335.85 78.6 339.85 79.8H329.15V74ZM326.45 71.5L318.25 79.8H317.55V69.8H324.85C325.35 70.4 325.85 70.9 326.45 71.5ZM326.75 71.9C327.35 72.5 327.95 73 328.55 73.5V79.8H318.95L326.75 71.9ZM374.85 28.2H381.55V43C380.55 37.5 378.25 32.4 374.85 28.2ZM359.15 59.6H366.95C365.05 62.7 362.35 65.2 359.15 66.9V59.6ZM381.45 17.2L381.55 17.1V17.2H381.45ZM380.95 17.8H381.55V27.8H374.35C373.85 27.2 373.35 26.6 372.75 26L380.95 17.8ZM370.95 27.8L372.35 26.3C372.85 26.8 373.35 27.3 373.75 27.8H370.95ZM339.15 59.6H358.55V67.2C355.85 68.5 352.75 69.2 349.55 69.2C343.95 69.2 338.95 67 335.25 63.4L339.15 59.6ZM349.65 49.1H358.55V49.5L358.35 49.7V50.2L358.55 50V50.8L358.35 50.9V51.4L358.55 51.3V52L358.35 52.2V52.7L358.55 52.5V53.3L358.35 53.4V53.9L358.55 53.8V54.5L358.35 54.7V55.2L358.55 55V55.8L358.35 55.9V56.4L358.55 56.3V57L358.35 57.2V57.7L358.55 57.5V58.3L358.35 58.4V58.9L358.55 58.8V59.1H339.65L349.65 49.1ZM380.25 17.8L372.35 25.6C368.75 22 364.35 19.4 359.35 17.8H380.25ZM317.55 80.4V80.2H317.75L317.55 80.4ZM338.35 59.6L334.95 63.1C333.95 62 333.05 60.9 332.25 59.6H338.35ZM349.35 48.6H329.15C329.25 37.4 338.25 28.2 349.55 28.2C355.15 28.2 360.25 30.5 363.95 34.1L349.35 48.6ZM348.85 49.1L338.85 59.1H331.95C330.25 56.2 329.25 52.7 329.15 49.1H348.85ZM317.55 59.6H318.95C320.25 63.1 322.05 66.3 324.35 69.2H317.55V59.6ZM317.55 59.1V54.5C317.85 56.1 318.25 57.6 318.75 59.1H317.55ZM329.15 17.2V16.5H343.85C343.05 16.6 342.35 17 341.55 17.2H329.15ZM329.15 17.8H339.85C335.85 19 332.25 20.9 329.15 23.5V17.8ZM317.55 27.8V17.8H328.55V24C327.15 25.2 326.05 26.4 324.85 27.8H317.55ZM317.55 28.2H324.35C320.95 32.4 318.55 37.5 317.55 43V28.2ZM358.55 41.2V48.6H350.15L364.25 34.4C367.85 38.1 370.15 43.1 370.15 48.6H359.15V41.2H358.55ZM370.15 41.2V44.2C369.25 40.3 367.35 36.8 364.65 34.1L370.45 28.2H374.15C378.75 33.7 381.55 40.9 381.55 48.6H370.55V41.2H370.15ZM389.55 17.2H382.15V16.6L386.65 12.1L386.25 11.7L382.15 15.9V3.8H381.55V16.4L380.75 17.2H357.65C356.85 17 355.65 16.6 354.85 16.5H372.35V15.9H329.15V3.8H328.55V15.9H327.85V16.5H328.55V17.2H317.55V3.8H317.15V17.2H310.45V17.8H317.15V27.8H310.45V28.2H317.15V48.8V59.1H310.75V59.6H317.15V69.2H311.55V69.8H317.15V79.8H311.55V80.2H317.15V80.9L312.25 85.7L312.65 86.1L317.15 81.6V95.1H317.55V81.1L318.45 80.2H328.55V80.8H327.85V81.2H328.55V95.1H329.15V81.2H349.55H358.55V95.1H359.15V81.2H370.15V95.1H370.55V81.2H372.35V80.8H370.55V80.2H381.55V95.1H382.15V80.2H391.75V79.8H382.15V69.8H389.75V69.2H382.15V59.6H384.95V59.1H382.15V49.1H388.95V48.6H382.15V28.2H389.55V27.8H382.15V17.8H389.55V17.2ZM360.95 78.7L369.85 73.5C367.25 75.7 364.15 77.5 360.95 78.7ZM370.15 72.9L359.15 79.2V78.5L370.15 72.1V72.9ZM371.55 72L370.55 72.6V71.8L373.25 70.3C372.75 70.9 372.15 71.5 371.55 72ZM358.55 78.8V79.5C358.25 79.6 357.85 79.7 357.55 79.8H356.95L358.55 78.8ZM370.15 71.6L359.15 78V77.3L370.15 70.9V71.6ZM358.55 78.3L356.05 79.8H354.75L358.55 77.5V78.3ZM373.35 69.8L370.55 71.3V70.6L372.05 69.8H373.35ZM355.15 80.3C354.55 80.4 354.05 80.4 353.45 80.5L353.95 80.2H355.15V80.3ZM372.95 69.2L375.25 67.9C374.95 68.4 374.55 68.8 374.15 69.2H372.95ZM372.05 69.2H370.75L376.65 65.8C376.35 66.2 376.15 66.6 375.85 67L372.05 69.2ZM370.15 70.4L359.15 76.7V76L369.85 69.8H370.15V70.4ZM358.55 77L353.85 79.8H352.65L358.55 76.3V77ZM371.15 69.8L370.55 70.1V69.8H371.15ZM352.35 80.6C351.85 80.6 351.45 80.7 350.95 80.7L351.75 80.2H353.05L352.35 80.6ZM369.85 69.2H368.65L370.15 68.4V69.1L369.85 69.2ZM370.55 68.8V68.1L377.75 63.9C377.55 64.3 377.35 64.6 377.15 65L370.55 68.8ZM369.05 69.8L359.15 75.5V74.8L367.75 69.8H369.05ZM358.55 75.8L351.75 79.8H350.45L358.55 75V75.8ZM350.05 80.7C349.95 80.7 349.65 80.8 349.55 80.8C349.25 80.8 349.05 80.7 348.75 80.7L349.65 80.2H350.85L350.05 80.7ZM367.75 69.2H366.45L370.15 67.1V67.9L367.75 69.2ZM370.55 67.6V66.8L378.65 62.2C378.45 62.5 378.35 62.9 378.15 63.2L370.55 67.6ZM366.85 69.8L359.15 74.2V73.5L365.55 69.8H366.85ZM358.55 74.5L349.55 79.8H348.35L358.55 73.8V74.5ZM348.75 80.2L347.95 80.7C347.55 80.7 347.15 80.6 346.75 80.6L347.45 80.2H348.75ZM365.55 69.2H364.25L370.15 65.9V66.6L365.55 69.2ZM370.55 66.3V65.6L379.35 60.5C379.25 60.8 379.05 61.2 378.95 61.5L370.55 66.3ZM364.65 69.8L359.15 73V72.3L363.45 69.8H364.65ZM358.55 73.3L347.45 79.8H346.15L358.55 72.5V73.3ZM346.55 80.2L346.05 80.6C345.75 80.6 345.25 80.4 344.95 80.4L345.25 80.2H346.55ZM363.35 69.2H362.15L370.15 64.6V65.4L363.35 69.2ZM370.55 65.1V64.3L378.75 59.6H379.75C379.75 59.7 379.65 59.8 379.65 59.9L370.55 65.1ZM362.55 69.8L359.15 71.7V71L361.25 69.8H362.55ZM358.55 72L345.25 79.8H343.95L358.55 71.3V72ZM344.35 80.2L344.25 80.3C344.15 80.3 344.05 80.2 343.95 80.2H344.35ZM379.65 59.1L379.95 58.9C379.95 59 379.85 59 379.85 59.1H379.65ZM361.25 69.2H359.95L370.15 63.4V64.1L361.25 69.2ZM378.75 59.1H377.45L380.45 57.4L380.15 58.3L378.75 59.1ZM370.55 63.8V63.1L376.65 59.6H377.85L370.55 63.8ZM360.35 69.8L359.15 70.5V69.8H360.35ZM358.55 70.8L343.05 79.8H341.85L358.55 70V70.8ZM359.15 69.2V68.5L370.15 62.1V62.9L359.15 69.2ZM376.55 59.1H375.35L380.75 55.9C380.65 56.2 380.65 56.5 380.55 56.8L376.55 59.1ZM370.55 62.6V61.8L374.45 59.6H375.75L370.55 62.6ZM358.25 69.8L341.15 79.6C340.85 79.5 340.65 79.5 340.35 79.4L356.95 69.8H358.25ZM357.85 69.2L358.55 68.8V69.2H357.85ZM359.15 68V67.5C360.45 66.9 361.55 66.1 362.65 65.2L370.15 60.9V61.6L359.15 68ZM374.45 59.1H373.15L381.05 54.5C380.95 54.8 381.05 55 380.95 55.3L374.45 59.1ZM370.55 61.3V60.6L372.35 59.6H373.55L370.55 61.3ZM356.05 69.8L339.75 79.2C339.45 79.1 339.25 79 338.95 78.9L354.75 69.8H356.05ZM356.95 69.2H355.65L357.35 68.3L358.55 67.7V68.3L356.95 69.2ZM364.35 63.7C364.85 63.2 365.35 62.6 365.75 62.1L370.15 59.6V60.4L364.35 63.7ZM372.25 59.1H371.05L381.25 53.1C381.25 53.4 381.15 53.6 381.15 53.9L372.25 59.1ZM370.55 60.1V59.6H371.45L370.55 60.1ZM353.85 69.8L338.35 78.7C338.05 78.6 337.85 78.5 337.65 78.4L352.65 69.8H353.85ZM355.15 69L354.75 69.2H354.15C354.45 69.1 354.85 69.1 355.15 69ZM369.25 59.6L366.55 61.2C366.85 60.8 367.05 60.4 367.35 60L367.95 59.6H369.25ZM370.55 58.8V58.1L381.45 51.8C381.45 52.1 381.35 52.3 381.35 52.6L370.55 58.8ZM351.75 69.8L337.15 78.2C336.95 78.1 336.55 78 336.35 77.9L350.45 69.8H351.75ZM370.15 57.9L367.95 59.1H367.85C368.05 58.8 368.15 58.4 368.35 58.1L370.15 57.1V57.9ZM370.55 57.6V56.8L381.55 50.5V51.3L370.55 57.6ZM370.15 58.4V59.1H368.85L370.15 58.4ZM349.55 69.8L335.85 77.7C335.65 77.6 335.45 77.4 335.25 77.3L348.35 69.8H349.55ZM370.15 56.6L368.75 57.4C368.85 57.1 369.05 56.7 369.15 56.4L370.15 55.9V56.6ZM370.55 56.3V55.6L381.55 49.2V50L370.55 56.3ZM365.85 59.1H364.55L368.45 56.8C368.35 57.1 368.15 57.5 367.95 57.8L365.85 59.1ZM366.75 59.1L367.55 58.6C367.45 58.8 367.35 58.9 367.25 59.1H366.75ZM347.45 69.8L334.75 77.1C334.55 77 334.25 76.8 334.05 76.7L346.15 69.8H347.45ZM370.15 55.4L369.35 55.8L369.65 54.9L370.15 54.6V55.4ZM370.55 55.1V54.3L379.65 49.1H380.95L370.55 55.1ZM363.65 59.1H362.35L369.05 55.2C368.95 55.5 368.85 55.9 368.75 56.2L363.65 59.1ZM345.25 69.8L333.65 76.5C333.45 76.4 333.25 76.2 333.05 76.1L343.95 69.8H345.25ZM370.15 54.1L369.85 54.2C369.95 53.9 369.95 53.7 370.05 53.4H370.15V54.1ZM370.55 53.8V53.1L377.45 49.1H378.75L370.55 53.8ZM361.45 59.1H360.25L369.45 53.7C369.35 54 369.35 54.3 369.25 54.6L361.45 59.1ZM343.05 69.8L332.55 75.8L331.95 75.5L341.85 69.8H343.05ZM343.95 69.2H342.75L343.45 68.8C343.75 68.9 343.95 69 344.25 69.1L343.95 69.2ZM370.55 52.6V51.8L375.35 49.1H376.55L370.55 52.6ZM359.35 59.1H359.15V58.5L369.75 52.3C369.75 52.6 369.75 52.8 369.65 53.1L359.35 59.1ZM340.95 69.8L331.55 75.2C331.35 75.1 331.15 74.9 330.95 74.8L339.65 69.8H340.95ZM341.85 69.2H340.55L342.05 68.4C342.35 68.5 342.55 68.5 342.85 68.6L341.85 69.2ZM370.55 51.3V50.6L373.15 49.1H374.45L370.55 51.3ZM359.15 58V57.3L369.95 51C369.95 51.3 369.85 51.4 369.85 51.7L359.15 58ZM338.75 69.8L330.55 74.5C330.35 74.4 330.25 74.2 330.05 74.1L337.55 69.8H338.75ZM339.65 69.2H338.35L340.85 67.8C341.05 67.9 341.35 68 341.55 68.1L339.65 69.2ZM370.55 50.1V49.3L371.05 49.1H372.25L370.55 50.1ZM359.15 56.7V56L370.05 49.6V50.4L359.15 56.7ZM336.65 69.8L329.65 73.8C329.45 73.7 329.35 73.5 329.15 73.4L335.35 69.8H336.65ZM337.45 69.2H336.25L339.65 67.3C339.85 67.4 340.15 67.5 340.35 67.6L337.45 69.2ZM359.15 55.5V54.8L368.85 49.1H370.05L359.15 55.5ZM334.45 69.8L329.15 72.9V72.1L333.25 69.8H334.45ZM335.35 69.2H334.05L338.55 66.6C338.75 66.7 339.05 66.9 339.25 67L335.35 69.2ZM359.15 54.2V53.5L366.75 49.1H367.95L359.15 54.2ZM328.25 72.6L328.55 72.4V72.9L328.25 72.6ZM327.95 72.3C327.75 72.2 327.65 72 327.45 71.8L328.55 71.2V71.9L327.95 72.3ZM332.35 69.8L329.15 71.6V70.9L331.05 69.8H332.35ZM333.15 69.2H331.95L337.55 66C337.75 66.1 337.95 66.3 338.15 66.4L333.15 69.2ZM359.15 53V52.3L364.55 49.1H365.85L359.15 53ZM327.35 71.4L328.55 70.1V70.6L327.35 71.4ZM330.15 69.8L329.15 70.4V69.8H330.15ZM331.05 69.2H329.75L336.65 65.3C336.85 65.4 336.95 65.6 337.15 65.7L331.05 69.2ZM359.15 51.7V51L362.35 49.1H363.65L359.15 51.7ZM327.35 70.6L326.75 71.2C326.75 71.1 326.65 71.1 326.65 71L327.35 70.6ZM327.95 69.8L326.35 70.7C326.25 70.5 325.95 70.4 325.85 70.2L326.75 69.8H327.95ZM330.25 68.4L332.05 66.7L335.75 64.5C335.95 64.6 336.05 64.9 336.25 65L330.25 68.4ZM359.15 50.5V49.8C359.55 49.6 359.85 49.3 360.25 49.1H361.45L359.15 50.5ZM329.15 68.4L330.35 67.7L329.15 68.9V68.4ZM327.55 69.2L328.55 68.7V69.2H327.55ZM329.15 67.9V67.1L333.35 64.7L331.55 66.4L329.15 67.9ZM326.65 69.2H325.45L328.55 67.4V68.1L326.65 69.2ZM325.85 69.8L325.55 69.9L325.45 69.8H325.85ZM333.25 65.5L334.95 63.8C335.15 63.9 335.15 64.1 335.35 64.2L333.25 65.5ZM359.15 49.2V49.1H359.35L359.15 49.2ZM329.15 66.6V65.9L334.15 63C334.25 63.2 334.45 63.2 334.55 63.4V63.5L329.15 66.6ZM324.85 69.1C324.75 68.9 324.55 68.8 324.45 68.6L328.55 66.2V66.9L324.85 69.1ZM329.15 65.4V64.6L333.45 62.1C333.55 62.3 333.75 62.4 333.85 62.6L329.15 65.4ZM324.15 68.2C324.05 68 323.95 67.9 323.85 67.7L328.55 64.9V65.6L324.15 68.2ZM329.15 64.1V63.4L332.75 61.3C332.85 61.5 333.05 61.6 333.15 61.8L329.15 64.1ZM323.55 67.3C323.45 67.1 323.25 67 323.15 66.8L328.55 63.7V64.4L323.55 67.3ZM329.15 62.9V62.1L332.15 60.4C332.25 60.6 332.35 60.7 332.45 60.9L329.15 62.9ZM322.95 66.4C322.85 66.2 322.65 66.1 322.55 65.9L328.55 62.4V63.1L322.95 66.4ZM329.15 61.6V60.9L331.35 59.6H331.65C331.75 59.7 331.75 59.9 331.85 60L329.15 61.6ZM322.35 65.5C322.25 65.3 322.15 65.2 322.05 65L328.55 61.2V61.9L322.35 65.5ZM331.25 59.1H330.05L331.05 58.5L331.35 59.1H331.25ZM329.15 60.4V59.6H330.45L329.15 60.4ZM321.75 64.6L321.45 64L328.55 59.9V60.6L321.75 64.6ZM329.15 59.1V58.4L330.55 57.5L330.85 58.1L329.15 59.1ZM328.25 59.6L321.25 63.6C321.15 63.4 321.05 63.3 320.95 63.1L326.95 59.6H328.25ZM327.85 59.1L328.55 58.7V59.1H327.85ZM326.95 59.1H325.65L328.55 57.4V58.1L326.95 59.1ZM330.35 57.1L329.15 57.9V57.1L330.05 56.5L330.35 57.1ZM326.05 59.6L320.75 62.7C320.65 62.5 320.65 62.3 320.55 62.1L324.85 59.6H326.05ZM324.75 59.1H323.55L328.55 56.2V56.9L324.75 59.1ZM329.95 56.1L329.15 56.6V55.9L329.75 55.5C329.85 55.7 329.85 55.9 329.95 56.1ZM323.95 59.6L320.35 61.7L320.05 61.1L322.65 59.6H323.95ZM322.65 59.1H321.35L328.55 54.9V55.6L322.65 59.1ZM329.55 55.1L329.15 55.4V54.6L329.35 54.5C329.45 54.7 329.45 54.9 329.55 55.1ZM321.75 59.6L319.95 60.7L319.65 60.1L320.55 59.6H321.75ZM320.45 59.1H319.35H319.25L328.55 53.7V54.4L320.45 59.1ZM329.25 54L329.15 54.1V53.4C329.15 53.6 329.15 53.8 329.25 54ZM319.65 59.6L319.55 59.7L319.45 59.6H319.65ZM363.45 33C363.25 32.9 363.15 32.6 362.95 32.5L368.95 29.1L367.25 30.8L363.45 33ZM363.75 33.3L365.95 32L364.25 33.7C364.05 33.5 363.95 33.4 363.75 33.3ZM319.15 58.6C319.05 58.4 319.05 58.2 318.95 58L328.55 52.4V53.1L319.15 58.6ZM369.45 28.2L362.55 32.2C362.35 32.1 362.25 31.9 362.05 31.8L368.15 28.2H369.45ZM318.85 57.6C318.75 57.4 318.75 57.1 318.65 56.9L328.55 51.2V51.9L318.85 57.6ZM368.15 27.8H366.85L371.25 25.2C371.45 25.3 371.55 25.5 371.75 25.7L368.15 27.8ZM367.25 28.2L361.65 31.5C361.45 31.4 361.25 31.2 361.05 31.1L366.05 28.2H367.25ZM369.05 27.8L371.95 26.1L370.25 27.8H369.05ZM318.55 56.5C318.45 56.3 318.35 56 318.35 55.8L328.55 49.9V50.6L318.55 56.5ZM365.95 27.8H364.75L370.45 24.5C370.65 24.6 370.75 24.8 370.95 24.9L365.95 27.8ZM365.15 28.2L360.65 30.9C360.45 30.8 360.15 30.6 359.95 30.5L363.85 28.2H365.15ZM318.25 55.4C318.25 55.2 318.15 54.9 318.15 54.7L327.85 49.1H328.55V49.4L318.25 55.4ZM363.85 27.8H362.55L369.55 23.7C369.75 23.8 369.85 24 370.05 24.1L363.85 27.8ZM362.95 28.2L359.55 30.2C359.35 30.1 359.05 30 358.85 29.9L361.65 28.2H362.95ZM318.05 54.2C318.05 54 317.95 53.8 317.95 53.6L325.65 49.1H326.95L318.05 54.2ZM327.85 48.6H326.55L328.55 47.4V48.1L327.85 48.6ZM361.65 27.8H360.45L368.55 23C368.75 23.1 368.95 23.3 369.15 23.4L361.65 27.8ZM360.75 28.2L358.35 29.7C358.15 29.6 357.85 29.4 357.65 29.3L359.55 28.2H360.75ZM317.85 53.1V52.4L323.55 49.1H324.75L317.85 53.1ZM325.65 48.6H324.35L328.55 46.2V46.9L325.65 48.6ZM359.55 27.8H358.25L367.65 22.3C367.85 22.4 367.95 22.6 368.15 22.7L359.55 27.8ZM358.65 28.2L357.15 29.1C356.85 29 356.65 29 356.35 28.9L357.35 28.2H358.65ZM317.75 51.9C317.75 51.7 317.65 51.4 317.65 51.2L328.55 44.9V45.6L323.55 48.6H323.35V48.7L317.75 51.9ZM357.35 27.8H356.05L366.65 21.7L367.25 22L357.35 27.8ZM356.45 28.2L355.75 28.7C355.45 28.6 355.25 28.5 354.95 28.4L355.25 28.2H356.45ZM317.65 50.7V50L328.55 43.7V44.4L317.65 50.7ZM329.15 44.1V43.4L329.35 43.2C329.25 43.5 329.25 43.8 329.15 44.1ZM355.15 27.8H353.95L365.55 21C365.75 21.1 365.95 21.3 366.15 21.4L355.15 27.8ZM354.35 28.2L354.25 28.3L354.15 28.2H354.35ZM317.65 49.5C317.65 49.3 317.55 49 317.55 48.8L328.55 42.4V43.1L317.65 49.5ZM329.15 42.9V42.1L329.85 41.7L329.55 42.6L329.15 42.9ZM353.05 27.8H351.75L364.45 20.4C364.65 20.5 364.95 20.7 365.15 20.8L353.05 27.8ZM317.65 48.3V47.5L328.55 41.2V41.9L317.65 48.3ZM329.15 41.6V40.9L330.45 40.1C330.35 40.4 330.15 40.8 330.05 41.1L329.15 41.6ZM350.85 27.8H349.65L363.25 19.8C363.45 19.9 363.75 20.1 363.95 20.2L350.85 27.8ZM317.65 47V46.2L328.55 39.9V40.6L317.65 47ZM329.15 40.4V39.6L331.35 38.3C331.15 38.6 331.05 39 330.85 39.4L329.15 40.4ZM348.75 27.8H347.45L362.05 19.3C362.25 19.4 362.55 19.5 362.75 19.6L348.75 27.8ZM317.75 45.7C317.75 45.4 317.85 45.2 317.85 44.9L328.55 38.7V39.4L317.75 45.7ZM329.15 39.1V38.4L332.65 36.3C332.35 36.7 332.15 37.1 331.85 37.5L329.15 39.1ZM346.55 27.8H345.25L360.85 18.8C361.15 18.9 361.35 19 361.55 19.1L346.55 27.8ZM317.95 44.3C317.95 44 318.05 43.8 318.05 43.5L328.55 37.4V38.1L317.95 44.3ZM329.15 37.9V37.1L334.85 33.8C334.35 34.3 333.95 34.8 333.45 35.3L329.15 37.9ZM343.95 28.5L344.45 28.2H345.05C344.65 28.3 344.25 28.4 343.95 28.5ZM318.15 43C318.25 42.7 318.15 42.4 318.25 42.1L328.55 36.2V36.9L318.15 43ZM329.15 36.6V35.9L342.25 28.2H343.55C342.95 28.5 342.45 28.9 341.85 29.2C339.95 30 338.15 31.1 336.55 32.3L329.15 36.6ZM344.35 27.8H343.15L359.45 18.3C359.75 18.4 359.95 18.5 360.25 18.6L344.35 27.8ZM318.45 41.5C318.55 41.2 318.55 41 318.65 40.7L328.55 34.9V35.6L318.45 41.5ZM329.15 35.4V34.6L340.15 28.2H341.35L329.15 35.4ZM342.25 27.8H340.95L358.05 17.9C358.35 18 358.55 18 358.85 18.1L342.25 27.8ZM318.75 40.1L319.05 39.2L328.55 33.7V34.4L318.75 40.1ZM329.15 34.1V33.4L337.95 28.2H339.25L329.15 34.1ZM340.05 27.8H338.85L356.05 17.8H357.35L340.05 27.8ZM319.25 38.6C319.35 38.3 319.45 37.9 319.55 37.6L328.55 32.4V33.1L319.25 38.6ZM329.15 32.9V32.1L335.75 28.2H337.05L329.15 32.9ZM337.95 27.8H336.65L353.95 17.8H355.15L337.95 27.8ZM319.85 37C319.95 36.7 320.15 36.3 320.25 36L328.55 31.2V31.9L319.85 37ZM329.15 31.6V30.9L333.65 28.2H334.85L329.15 31.6ZM335.75 27.8H334.55L351.75 17.8H353.05L335.75 27.8ZM354.45 16.8L353.85 17.2H352.65L353.65 16.6C353.95 16.6 354.15 16.8 354.45 16.8ZM355.05 17L355.65 17.2H354.75L355.05 17ZM320.55 35.3C320.75 35 320.85 34.6 321.05 34.3L328.55 29.9V30.6L320.55 35.3ZM329.15 30.4V29.6L331.45 28.2H332.75L329.15 30.4ZM333.65 27.8H332.35L349.65 17.8H350.85L333.65 27.8ZM352.95 16.5L351.75 17.2H350.45L351.75 16.5H352.95ZM321.45 33.5C321.65 33.1 321.85 32.9 322.05 32.5L328.55 28.7V29.4L321.45 33.5ZM329.15 29.1V28.4L329.35 28.2H330.55C330.05 28.5 329.65 28.8 329.15 29.1ZM331.45 27.8H330.15L347.45 17.8H348.75L331.45 27.8ZM350.95 16.5L349.55 17.2H348.35L349.65 16.5H350.05H350.95ZM328.45 28.2L322.55 31.6C322.85 31.2 323.05 30.9 323.35 30.5L327.15 28.2H328.45ZM329.25 27.8H329.15V27.1L345.25 17.8H346.55L329.25 27.8ZM348.75 16.5L347.45 17.2H346.15L347.35 16.6C347.85 16.6 348.25 16.5 348.75 16.5ZM326.25 28.2L323.95 29.6C324.25 29.2 324.65 28.6 325.05 28.2H326.25ZM328.55 26.9L327.15 27.8H325.85L328.55 26.2V26.9ZM344.35 17.8L329.15 26.6V25.9L343.15 17.8H344.35ZM346.25 16.7L345.25 17.2C345.25 17.2 345.65 16.8 346.25 16.7ZM328.55 27.4V27.8H328.05L328.55 27.4ZM328.55 25.6L325.95 27.2C326.45 26.6 327.05 26 327.65 25.5L328.55 24.9V25.6ZM342.25 17.8L329.15 25.4V24.6L340.35 18.1C340.75 18 341.25 17.9 341.65 17.8H342.25ZM338.15 18.9L329.45 23.9C332.05 21.8 334.95 20.1 338.15 18.9Z" fill="black"/>
<path id="Slogan" d="M41.6021 123V122.341H43.5918V116.25L37.3052 105.886H35.8525V105.227H39.832V105.886H38.1108L43.5918 115.102L43.9092 115.712L43.9214 115.688L44.2388 115.102L49.7441 105.886H48.0229V105.227H52.0024V105.886H50.5376L44.2632 116.25V122.341H46.2529V123H41.6021ZM58.4111 123.256C57.2637 123.256 56.2546 122.976 55.3838 122.414C54.513 121.853 53.8335 121.075 53.3452 120.083C52.8569 119.09 52.6128 117.946 52.6128 116.652V116.14C52.6128 114.846 52.8569 113.706 53.3452 112.722C53.8335 111.729 54.509 110.952 55.3716 110.39C56.2424 109.829 57.2474 109.548 58.3867 109.548C59.5342 109.548 60.5392 109.829 61.4019 110.39C62.2726 110.952 62.9521 111.729 63.4404 112.722C63.9287 113.706 64.1729 114.846 64.1729 116.14V116.652C64.1729 117.946 63.9287 119.09 63.4404 120.083C62.9521 121.075 62.2726 121.853 61.4019 122.414C60.5392 122.976 59.5423 123.256 58.4111 123.256ZM58.4111 122.597C59.4447 122.597 60.3439 122.333 61.1089 121.804C61.8739 121.267 62.4639 120.55 62.8789 119.655C63.3021 118.752 63.5137 117.751 63.5137 116.652V116.14C63.5137 115.057 63.3021 114.069 62.8789 113.173C62.4557 112.27 61.8576 111.55 61.0845 111.013C60.3195 110.476 59.4202 110.207 58.3867 110.207C57.3532 110.207 56.4499 110.476 55.6768 111.013C54.9118 111.55 54.3177 112.27 53.8945 113.173C53.4795 114.069 53.272 115.057 53.272 116.14V116.652C53.272 117.759 53.4795 118.764 53.8945 119.667C54.3177 120.563 54.9118 121.275 55.6768 121.804C56.4499 122.333 57.3613 122.597 58.4111 122.597ZM71.9609 123.256C70.6263 123.256 69.5887 122.776 68.8481 121.816C68.1076 120.847 67.7373 119.35 67.7373 117.324V110.451H65.9917V109.792H68.3965V117.348C68.3965 119.139 68.7098 120.461 69.3364 121.315C69.9712 122.17 70.8379 122.597 71.9365 122.597C73.3118 122.597 74.3454 122.259 75.0371 121.584C75.737 120.909 76.1886 120.013 76.3921 118.898V110.451H74.4023V109.792H77.0635V122.341H79.0532V123H76.5142L76.4165 120.632C76.0015 121.47 75.4277 122.117 74.6953 122.573C73.971 123.028 73.0596 123.256 71.9609 123.256ZM81.2139 123V122.341H83.2036V110.451H81.2139V109.792H83.7407L83.8628 112.087V112.539C84.229 111.595 84.7743 110.862 85.4985 110.341C86.2228 109.812 87.1139 109.548 88.1719 109.548C88.359 109.548 88.5706 109.564 88.8066 109.597C89.0508 109.629 89.2298 109.662 89.3438 109.694L89.2705 110.28L88.1719 110.195C86.9919 110.195 86.0316 110.577 85.291 111.342C84.5586 112.099 84.0825 113.1 83.8628 114.345V122.341H85.8525V123H81.2139ZM97.0342 123V122.341H99.0239V105.886H97.0342V105.227H103.699C105.538 105.227 106.967 105.605 107.984 106.362C109.001 107.119 109.51 108.258 109.51 109.78C109.51 110.838 109.237 111.729 108.692 112.453C108.147 113.177 107.378 113.629 106.385 113.808C107.125 113.906 107.793 114.162 108.387 114.577C108.981 114.984 109.449 115.497 109.791 116.115C110.14 116.726 110.315 117.389 110.315 118.105C110.315 119.659 109.811 120.864 108.802 121.718C107.801 122.573 106.474 123 104.822 123H97.0342ZM99.6831 113.564H103.943C107.207 113.564 108.838 112.286 108.838 109.731C108.838 107.167 107.125 105.886 103.699 105.886H99.6831V113.564ZM99.6831 122.341H104.822C106.32 122.341 107.5 121.971 108.362 121.23C109.225 120.489 109.656 119.456 109.656 118.129C109.656 117.405 109.469 116.75 109.095 116.164C108.729 115.57 108.191 115.098 107.483 114.748C106.784 114.398 105.937 114.223 104.944 114.223H99.6831V122.341ZM116.492 123.256C115.337 123.256 114.409 122.927 113.709 122.268C113.017 121.6 112.671 120.729 112.671 119.655C112.671 118.866 112.907 118.17 113.379 117.568C113.86 116.958 114.531 116.481 115.394 116.14C116.264 115.798 117.286 115.627 118.458 115.627H121.497V113.942C121.497 112.844 121.18 111.944 120.545 111.245C119.91 110.545 118.913 110.195 117.554 110.195C116.838 110.195 116.183 110.329 115.589 110.598C114.995 110.866 114.49 111.192 114.075 111.574V113.735H113.416V111.22C113.961 110.716 114.568 110.313 115.235 110.012C115.91 109.702 116.688 109.548 117.566 109.548C119.088 109.548 120.232 109.947 120.997 110.744C121.77 111.534 122.156 112.608 122.156 113.967V120.339C122.156 120.681 122.168 121.018 122.193 121.352C122.225 121.686 122.274 122.015 122.339 122.341H124.17V123H121.766C121.66 122.422 121.587 121.983 121.546 121.682C121.513 121.372 121.497 121.002 121.497 120.571C121.001 121.368 120.317 122.015 119.446 122.512C118.584 123.008 117.599 123.256 116.492 123.256ZM116.492 122.609C117.493 122.609 118.462 122.329 119.397 121.767C120.333 121.206 121.033 120.428 121.497 119.436V116.298H118.494C116.94 116.298 115.691 116.616 114.747 117.25C113.803 117.877 113.331 118.695 113.331 119.704C113.331 120.526 113.628 121.218 114.222 121.779C114.816 122.333 115.573 122.609 116.492 122.609ZM131.617 123.256C130.608 123.256 129.7 122.98 128.895 122.426C128.089 121.873 127.454 121.104 126.99 120.119C126.526 119.126 126.294 117.971 126.294 116.652V116.14C126.294 114.821 126.518 113.67 126.966 112.685C127.422 111.692 128.048 110.923 128.846 110.378C129.643 109.825 130.559 109.548 131.592 109.548C132.585 109.548 133.476 109.759 134.266 110.183C135.063 110.598 135.726 111.106 136.255 111.708V114.541H135.596V111.953C135.075 111.399 134.485 110.972 133.826 110.671C133.167 110.362 132.426 110.207 131.604 110.207C130.677 110.207 129.863 110.459 129.163 110.964C128.463 111.468 127.918 112.168 127.527 113.063C127.145 113.951 126.954 114.976 126.954 116.14V116.652C126.954 117.824 127.149 118.858 127.54 119.753C127.93 120.648 128.475 121.348 129.175 121.853C129.883 122.349 130.709 122.597 131.653 122.597C132.785 122.597 133.733 122.308 134.498 121.73C135.271 121.153 135.73 120.262 135.877 119.057H136.438L136.463 119.13C136.308 120.489 135.796 121.519 134.925 122.219C134.054 122.91 132.951 123.256 131.617 123.256ZM138.99 123V122.341H140.979V104.616H138.99V103.957H141.639V117.751L148.462 110.524L148.438 110.451H146.985V109.792H150.904V110.451H149.415L144.825 115.285L150 122.341H151.429V123H147.522V122.341H149.061L149.085 122.28L144.385 115.749L141.639 118.642V122.341H143.628V123H138.99ZM159.205 123.256C158.147 123.256 157.203 122.988 156.373 122.451C155.542 121.905 154.887 121.157 154.407 120.205C153.927 119.244 153.687 118.142 153.687 116.896V116.115C153.687 114.854 153.919 113.731 154.383 112.746C154.847 111.753 155.481 110.972 156.287 110.402C157.101 109.833 158.021 109.548 159.046 109.548C160.039 109.548 160.905 109.772 161.646 110.219C162.395 110.659 162.972 111.281 163.379 112.087C163.794 112.893 164.002 113.845 164.002 114.943V115.957H154.346V116.896C154.346 117.987 154.554 118.964 154.969 119.826C155.384 120.681 155.958 121.356 156.69 121.853C157.422 122.349 158.261 122.597 159.205 122.597C160.043 122.597 160.783 122.455 161.426 122.17C162.077 121.877 162.655 121.482 163.16 120.986L163.514 121.499C162.968 122.019 162.35 122.443 161.658 122.768C160.966 123.094 160.149 123.256 159.205 123.256ZM154.48 115.297H163.343V114.895C163.343 113.999 163.164 113.198 162.806 112.49C162.456 111.782 161.959 111.224 161.316 110.817C160.674 110.41 159.917 110.207 159.046 110.207C158.216 110.207 157.467 110.427 156.8 110.866C156.132 111.306 155.591 111.904 155.176 112.661C154.761 113.417 154.517 114.272 154.444 115.224L154.48 115.297ZM166.639 123V122.341H168.628V110.451H166.639V109.792H169.19L169.275 112.514C169.674 111.57 170.256 110.842 171.021 110.329C171.786 109.808 172.73 109.548 173.853 109.548C175.293 109.548 176.372 110.004 177.088 110.915C177.812 111.818 178.174 113.255 178.174 115.224V122.341H180.164V123H175.525V122.341H177.515V115.2C177.515 113.369 177.186 112.079 176.526 111.33C175.875 110.581 174.988 110.207 173.865 110.207C172.441 110.207 171.367 110.634 170.643 111.489C169.918 112.335 169.467 113.422 169.288 114.748V122.341H171.277V123H166.639ZM187.769 123.256C186.215 123.256 184.998 122.662 184.119 121.474C183.248 120.286 182.813 118.675 182.813 116.64V116.384C182.813 114.292 183.252 112.632 184.131 111.403C185.01 110.166 186.231 109.548 187.793 109.548C188.835 109.548 189.73 109.788 190.479 110.268C191.228 110.74 191.826 111.391 192.273 112.221V104.616H190.284V103.957H192.933V122.341H194.922V123H192.298L192.273 120.888C191.842 121.612 191.244 122.19 190.479 122.622C189.714 123.045 188.811 123.256 187.769 123.256ZM187.757 122.597C188.904 122.597 189.856 122.337 190.613 121.816C191.378 121.295 191.932 120.599 192.273 119.729V113.54C191.956 112.596 191.443 111.806 190.735 111.171C190.027 110.528 189.043 110.207 187.781 110.207C186.845 110.207 186.06 110.467 185.425 110.988C184.791 111.509 184.31 112.233 183.985 113.161C183.659 114.089 183.497 115.163 183.497 116.384V116.64C183.497 118.463 183.855 119.912 184.571 120.986C185.295 122.06 186.357 122.597 187.757 122.597ZM204.078 126.296V105.227H204.737V126.296H204.078ZM218.274 123.256C217.119 123.256 216.191 122.927 215.491 122.268C214.799 121.6 214.454 120.729 214.454 119.655C214.454 118.866 214.69 118.17 215.162 117.568C215.642 116.958 216.313 116.481 217.176 116.14C218.047 115.798 219.068 115.627 220.24 115.627H223.279V113.942C223.279 112.844 222.962 111.944 222.327 111.245C221.692 110.545 220.695 110.195 219.336 110.195C218.62 110.195 217.965 110.329 217.371 110.598C216.777 110.866 216.272 111.192 215.857 111.574V113.735H215.198V111.22C215.743 110.716 216.35 110.313 217.017 110.012C217.693 109.702 218.47 109.548 219.349 109.548C220.87 109.548 222.014 109.947 222.779 110.744C223.552 111.534 223.938 112.608 223.938 113.967V120.339C223.938 120.681 223.951 121.018 223.975 121.352C224.008 121.686 224.056 122.015 224.122 122.341H225.953V123H223.548C223.442 122.422 223.369 121.983 223.328 121.682C223.296 121.372 223.279 121.002 223.279 120.571C222.783 121.368 222.099 122.015 221.229 122.512C220.366 123.008 219.381 123.256 218.274 123.256ZM218.274 122.609C219.275 122.609 220.244 122.329 221.18 121.767C222.116 121.206 222.815 120.428 223.279 119.436V116.298H220.276C218.722 116.298 217.473 116.616 216.529 117.25C215.585 117.877 215.113 118.695 215.113 119.704C215.113 120.526 215.41 121.218 216.004 121.779C216.598 122.333 217.355 122.609 218.274 122.609ZM227.808 123V122.341H229.798V104.616H227.808V103.957H230.457V122.341H232.447V123H227.808ZM234.998 123V122.341H236.988V110.451H234.998V109.792H237.525L237.647 112.087V112.539C238.013 111.595 238.558 110.862 239.283 110.341C240.007 109.812 240.898 109.548 241.956 109.548C242.143 109.548 242.355 109.564 242.591 109.597C242.835 109.629 243.014 109.662 243.128 109.694L243.055 110.28L241.956 110.195C240.776 110.195 239.816 110.577 239.075 111.342C238.343 112.099 237.867 113.1 237.647 114.345V122.341H239.637V123H234.998ZM250.611 123.256C249.553 123.256 248.609 122.988 247.779 122.451C246.949 121.905 246.294 121.157 245.813 120.205C245.333 119.244 245.093 118.142 245.093 116.896V116.115C245.093 114.854 245.325 113.731 245.789 112.746C246.253 111.753 246.888 110.972 247.693 110.402C248.507 109.833 249.427 109.548 250.452 109.548C251.445 109.548 252.312 109.772 253.052 110.219C253.801 110.659 254.379 111.281 254.786 112.087C255.201 112.893 255.408 113.845 255.408 114.943V115.957H245.752V116.896C245.752 117.987 245.96 118.964 246.375 119.826C246.79 120.681 247.364 121.356 248.096 121.853C248.829 122.349 249.667 122.597 250.611 122.597C251.449 122.597 252.19 122.455 252.833 122.17C253.484 121.877 254.061 121.482 254.566 120.986L254.92 121.499C254.375 122.019 253.756 122.443 253.064 122.768C252.373 123.094 251.555 123.256 250.611 123.256ZM245.887 115.297H254.749V114.895C254.749 113.999 254.57 113.198 254.212 112.49C253.862 111.782 253.366 111.224 252.723 110.817C252.08 110.41 251.323 110.207 250.452 110.207C249.622 110.207 248.873 110.427 248.206 110.866C247.539 111.306 246.998 111.904 246.583 112.661C246.167 113.417 245.923 114.272 245.85 115.224L245.887 115.297ZM262.049 123.256C260.893 123.256 259.965 122.927 259.266 122.268C258.574 121.6 258.228 120.729 258.228 119.655C258.228 118.866 258.464 118.17 258.936 117.568C259.416 116.958 260.088 116.481 260.95 116.14C261.821 115.798 262.842 115.627 264.014 115.627H267.054V113.942C267.054 112.844 266.736 111.944 266.102 111.245C265.467 110.545 264.47 110.195 263.111 110.195C262.395 110.195 261.74 110.329 261.146 110.598C260.551 110.866 260.047 111.192 259.632 111.574V113.735H258.973V111.22C259.518 110.716 260.124 110.313 260.792 110.012C261.467 109.702 262.244 109.548 263.123 109.548C264.645 109.548 265.788 109.947 266.553 110.744C267.326 111.534 267.713 112.608 267.713 113.967V120.339C267.713 120.681 267.725 121.018 267.75 121.352C267.782 121.686 267.831 122.015 267.896 122.341H269.727V123H267.322C267.216 122.422 267.143 121.983 267.103 121.682C267.07 121.372 267.054 121.002 267.054 120.571C266.557 121.368 265.874 122.015 265.003 122.512C264.14 123.008 263.156 123.256 262.049 123.256ZM262.049 122.609C263.05 122.609 264.018 122.329 264.954 121.767C265.89 121.206 266.59 120.428 267.054 119.436V116.298H264.051C262.496 116.298 261.247 116.616 260.303 117.25C259.359 117.877 258.887 118.695 258.887 119.704C258.887 120.526 259.184 121.218 259.778 121.779C260.372 122.333 261.129 122.609 262.049 122.609ZM276.807 123.256C275.253 123.256 274.036 122.662 273.157 121.474C272.286 120.286 271.851 118.675 271.851 116.64V116.384C271.851 114.292 272.291 112.632 273.169 111.403C274.048 110.166 275.269 109.548 276.832 109.548C277.873 109.548 278.768 109.788 279.517 110.268C280.266 110.74 280.864 111.391 281.312 112.221V104.616H279.322V103.957H281.971V122.341H283.96V123H281.336L281.312 120.888C280.88 121.612 280.282 122.19 279.517 122.622C278.752 123.045 277.849 123.256 276.807 123.256ZM276.795 122.597C277.942 122.597 278.895 122.337 279.651 121.816C280.416 121.295 280.97 120.599 281.312 119.729V113.54C280.994 112.596 280.481 111.806 279.773 111.171C279.065 110.528 278.081 110.207 276.819 110.207C275.883 110.207 275.098 110.467 274.463 110.988C273.829 111.509 273.348 112.233 273.023 113.161C272.697 114.089 272.535 115.163 272.535 116.384V116.64C272.535 118.463 272.893 119.912 273.609 120.986C274.333 122.06 275.395 122.597 276.795 122.597ZM288.758 128.334C288.383 128.334 288.074 128.29 287.83 128.2L287.94 127.578C288.029 127.602 288.164 127.626 288.343 127.651C288.522 127.675 288.66 127.688 288.758 127.688C289.507 127.688 290.088 127.468 290.503 127.028C290.927 126.589 291.301 125.938 291.626 125.075L292.42 122.927L287.415 110.451H285.975V109.792H289.869V110.451H288.135L292.225 120.607L292.713 121.926H292.786L297.168 110.451H295.435V109.792H299.341V110.451H297.901L292.286 125.197C292.05 125.816 291.789 126.361 291.504 126.833C291.228 127.305 290.874 127.671 290.442 127.932C290.011 128.2 289.45 128.334 288.758 128.334ZM311.988 123.256C310.433 123.256 309.217 122.662 308.338 121.474C307.467 120.286 307.032 118.675 307.032 116.64V116.384C307.032 114.292 307.471 112.632 308.35 111.403C309.229 110.166 310.45 109.548 312.012 109.548C313.054 109.548 313.949 109.788 314.698 110.268C315.446 110.74 316.045 111.391 316.492 112.221V104.616H314.502V103.957H317.151V122.341H319.141V123H316.517L316.492 120.888C316.061 121.612 315.463 122.19 314.698 122.622C313.933 123.045 313.029 123.256 311.988 123.256ZM311.976 122.597C313.123 122.597 314.075 122.337 314.832 121.816C315.597 121.295 316.15 120.599 316.492 119.729V113.54C316.175 112.596 315.662 111.806 314.954 111.171C314.246 110.528 313.261 110.207 312 110.207C311.064 110.207 310.279 110.467 309.644 110.988C309.009 111.509 308.529 112.233 308.204 113.161C307.878 114.089 307.715 115.163 307.715 116.384V116.64C307.715 118.463 308.073 119.912 308.79 120.986C309.514 122.06 310.576 122.597 311.976 122.597ZM327.552 123.256C326.404 123.256 325.395 122.976 324.524 122.414C323.654 121.853 322.974 121.075 322.486 120.083C321.998 119.09 321.753 117.946 321.753 116.652V116.14C321.753 114.846 321.998 113.706 322.486 112.722C322.974 111.729 323.65 110.952 324.512 110.39C325.383 109.829 326.388 109.548 327.527 109.548C328.675 109.548 329.68 109.829 330.542 110.39C331.413 110.952 332.093 111.729 332.581 112.722C333.069 113.706 333.313 114.846 333.313 116.14V116.652C333.313 117.946 333.069 119.09 332.581 120.083C332.093 121.075 331.413 121.853 330.542 122.414C329.68 122.976 328.683 123.256 327.552 123.256ZM327.552 122.597C328.585 122.597 329.485 122.333 330.25 121.804C331.014 121.267 331.604 120.55 332.02 119.655C332.443 118.752 332.654 117.751 332.654 116.652V116.14C332.654 115.057 332.443 114.069 332.02 113.173C331.596 112.27 330.998 111.55 330.225 111.013C329.46 110.476 328.561 110.207 327.527 110.207C326.494 110.207 325.59 110.476 324.817 111.013C324.052 111.55 323.458 112.27 323.035 113.173C322.62 114.069 322.413 115.057 322.413 116.14V116.652C322.413 117.759 322.62 118.764 323.035 119.667C323.458 120.563 324.052 121.275 324.817 121.804C325.59 122.333 326.502 122.597 327.552 122.597ZM335.682 123V122.341H337.671V110.451H335.682V109.792H338.233L338.318 112.514C338.717 111.57 339.299 110.842 340.064 110.329C340.829 109.808 341.773 109.548 342.896 109.548C344.336 109.548 345.415 110.004 346.131 110.915C346.855 111.818 347.217 113.255 347.217 115.224V122.341H349.207V123H344.568V122.341H346.558V115.2C346.558 113.369 346.229 112.079 345.569 111.33C344.918 110.581 344.031 110.207 342.908 110.207C341.484 110.207 340.41 110.634 339.686 111.489C338.961 112.335 338.51 113.422 338.331 114.748V122.341H340.32V123H335.682ZM357.471 123.256C356.413 123.256 355.469 122.988 354.639 122.451C353.809 121.905 353.154 121.157 352.674 120.205C352.194 119.244 351.954 118.142 351.954 116.896V116.115C351.954 114.854 352.186 113.731 352.649 112.746C353.113 111.753 353.748 110.972 354.554 110.402C355.368 109.833 356.287 109.548 357.312 109.548C358.305 109.548 359.172 109.772 359.913 110.219C360.661 110.659 361.239 111.281 361.646 112.087C362.061 112.893 362.269 113.845 362.269 114.943V115.957H352.613V116.896C352.613 117.987 352.82 118.964 353.235 119.826C353.65 120.681 354.224 121.356 354.957 121.853C355.689 122.349 356.527 122.597 357.471 122.597C358.309 122.597 359.05 122.455 359.693 122.17C360.344 121.877 360.922 121.482 361.426 120.986L361.78 121.499C361.235 122.019 360.617 122.443 359.925 122.768C359.233 123.094 358.415 123.256 357.471 123.256ZM352.747 115.297H361.609V114.895C361.609 113.999 361.43 113.198 361.072 112.49C360.722 111.782 360.226 111.224 359.583 110.817C358.94 110.41 358.183 110.207 357.312 110.207C356.482 110.207 355.734 110.427 355.066 110.866C354.399 111.306 353.858 111.904 353.443 112.661C353.028 113.417 352.784 114.272 352.71 115.224L352.747 115.297Z" fill="black" fill-opacity="0.5"/>
</g>
</g>
</svg>
